<svg xmlns="http://www.w3.org/2000/svg">
    <symbol viewBox="0 0 106 39" id="s_logo_text_gesa">
        <path fill-rule="evenodd" d="M29.25 52.03q0 1.63-.42 2.94-.41 1.3-1.1 2.29-.68.99-1.58 1.69-.91.69-1.89 1.13-.99.44-2.01.65-1.01.21-1.91.21H8.89V54.59H20.34q1.29 0 1.93-.66.63-.66.63-1.9V31.98q0-1.24-.63-1.89-.64-.65-1.93-.65H8.89q-1.18 0-1.86.72-.68.72-.68 1.82v8.6q0 1.24.66 1.9.66.66 1.93.66h11.4v6.35H8.89q-.91 0-1.91-.21t-1.99-.65Q4 48.19 3.1 47.5q-.9-.7-1.59-1.69-.68-.99-1.09-2.29Q0 42.21 0 40.58v-8.6q0-.9.21-1.9t.64-1.99q.44-.99 1.14-1.89.7-.91 1.68-1.59.99-.68 2.29-1.1 1.29-.41 2.93-.41H20.34q.9 0 1.91.2 1.02.21 2.01.65.98.44 1.89 1.14.9.69 1.58 1.68.69.99 1.1 2.28.42 1.3.42 2.93V52.03Zm34.2-20.19q0 1.31-.46 2.84-.47 1.53-1.5 2.83-1.04 1.31-2.71 2.19-1.68.88-4.07.88H43.26V34.55H54.71q1.3 0 2-.8.71-.79.71-1.96 0-1.25-.79-1.96-.8-.7-1.92-.7H43.26q-1.29 0-2 .79-.71.79-.71 1.96v8.87q0 1.27.8 1.97.79.71 1.96.71h11.4v6.06H43.26q-1.32 0-2.84-.47-1.53-.46-2.83-1.5-1.31-1.04-2.19-2.71-.88-1.67-.88-4.06V31.84q0-1.32.47-2.85.46-1.52 1.5-2.83 1.03-1.31 2.71-2.19 1.67-.87 4.06-.87H54.71q1.32 0 2.85.46 1.52.46 2.83 1.5 1.3 1.04 2.18 2.71.88 1.67.88 4.07Zm29.79 8.74q0 1.63-.42 2.94-.41 1.3-1.1 2.29-.68.99-1.58 1.69-.91.69-1.9 1.13-.98.44-2 .65-1.01.21-1.91.21H67.14V43.14H84.28q1.29 0 1.95-.66.66-.66.66-1.9-.12-2.54-2.56-2.54H74.49q-2.1 0-3.57-.74-1.46-.73-2.38-1.83-.91-1.09-1.32-2.36-.4-1.27-.4-2.37 0-2.13.76-3.58.75-1.45 1.9-2.36 1.15-.9 2.49-1.3 1.35-.4 2.52-.4h15.6v6.34H74.54q-.49 0-.77.11t-.42.3q-.13.18-.16.39-.02.2-.02.4.02.39.15.61.12.22.3.32.18.1.42.11.23.01.45.01h9.84q2.44 0 4.15.88 1.71.88 2.76 2.21 1.05 1.33 1.52 2.89.48 1.56.48 2.91Zm31.69.17q0 1.32-.47 2.84-.46 1.53-1.5 2.83-1.04 1.31-2.71 2.19t-4.06.88H104.74q-1.32 0-2.85-.47-1.52-.46-2.83-1.5-1.31-1.04-2.18-2.71Q96 43.14 96 40.75q0-1.32.46-2.86.46-1.54 1.5-2.84 1.04-1.31 2.71-2.19 1.67-.88 4.07-.88h11.45v6.06H104.74q-1.3 0-2.01.79-.7.79-.7 1.97 0 1.24.81 1.94.82.69 1.95.69h11.4q1.29 0 2-.78.71-.78.71-1.95V31.84q0-1.25-.77-1.98-.77-.73-1.94-.73H102.25V23.1h13.94q1.31 0 2.84.46 1.53.46 2.83 1.5 1.31 1.04 2.19 2.71.88 1.67.88 4.07v8.91Zm10.71 5.54q0 .66-.25 1.23-.26.58-.69 1-.42.43-1 .67-.57.25-1.2.25-.66 0-1.24-.25-.57-.24-1-.67-.43-.42-.67-1-.24-.57-.24-1.23 0-.64.24-1.21t.67-1q.43-.43 1-.68.58-.26 1.24-.26.63 0 1.2.26.58.25 1 .68.43.43.69 1 .25.57.25 1.21Z"/>
    </symbol>
    <symbol viewBox="0 0 106 39" id="s_logo_text">
        <path fill-rule="evenodd" d="M101.232,6.23c-0.157,0.149 -0.235,0.402 -0.235,0.758l0,2.484c0,0.705 0.322,1.057 0.964,1.057l3.023,0c0.157,0 0.297,-0.036 0.424,-0.108c0.125,-0.072 0.231,-0.164 0.319,-0.274c0.086,-0.11 0.153,-0.225 0.201,-0.344c0.048,-0.119 0.072,-0.229 0.072,-0.331l0,-2.484c0,-0.356 -0.094,-0.609 -0.281,-0.758c-0.186,-0.148 -0.431,-0.223 -0.735,-0.223l-3.023,0c-0.33,0 -0.573,0.075 -0.729,0.223Zm-41.778,1.357c0,-0.272 0.07,-0.501 0.209,-0.688c0.139,-0.187 0.377,-0.28 0.716,-0.28l3.192,0c0.087,0 0.178,0.023 0.274,0.07c0.095,0.047 0.184,0.112 0.267,0.197c0.082,0.085 0.152,0.187 0.208,0.306c0.057,0.119 0.085,0.25 0.085,0.395l0,20.048c0,0.322 -0.094,0.566 -0.28,0.732c-0.187,0.166 -0.428,0.248 -0.723,0.248l-3.023,0c-0.339,0 -0.577,-0.082 -0.716,-0.248c-0.139,-0.166 -0.209,-0.41 -0.209,-0.732l0,-20.048Zm-9.292,5.082c0,-0.79 0.174,-1.533 0.521,-2.229c0.347,-0.696 0.812,-1.306 1.394,-1.828c0.582,-0.522 1.251,-0.934 2.006,-1.235c0.756,-0.302 1.546,-0.452 2.371,-0.452l0.261,0c0.295,0 0.523,0.087 0.684,0.261c0.161,0.174 0.241,0.414 0.241,0.719l0,2.433c0,0.314 -0.085,0.575 -0.254,0.783c-0.17,0.208 -0.393,0.312 -0.671,0.312l-0.261,0c-0.182,0 -0.356,0.032 -0.521,0.096c-0.165,0.064 -0.312,0.151 -0.443,0.261c-0.13,0.11 -0.234,0.24 -0.312,0.389c-0.079,0.148 -0.118,0.312 -0.118,0.49l0,1.465l2.046,0c0.295,0 0.523,0.078 0.684,0.235c0.16,0.157 0.241,0.406 0.241,0.745l0,2.331c0,0.365 -0.081,0.633 -0.241,0.803c-0.161,0.169 -0.389,0.254 -0.684,0.254l-2.046,0l0,9.133c0,0.322 -0.11,0.566 -0.332,0.732c-0.221,0.166 -0.462,0.248 -0.723,0.248l-2.814,0c-0.313,0 -0.562,-0.095 -0.749,-0.286c-0.187,-0.191 -0.28,-0.423 -0.28,-0.694l0,-9.133l-1.342,0c-0.304,0 -0.549,-0.085 -0.736,-0.254c-0.187,-0.17 -0.28,-0.438 -0.28,-0.803l0,-2.331c0,-0.339 0.093,-0.588 0.28,-0.745c0.187,-0.157 0.432,-0.235 0.736,-0.235l1.342,0l0,-1.465Zm28.225,15.622c0.955,-0.387 1.815,-0.924 2.58,-1.612c0.13,-0.093 0.243,-0.201 0.338,-0.324c0.096,-0.123 0.144,-0.27 0.144,-0.44c0,-0.093 -0.013,-0.184 -0.039,-0.274c-0.027,-0.089 -0.087,-0.189 -0.183,-0.299l-1.381,-1.528c-0.147,-0.145 -0.28,-0.255 -0.397,-0.332c-0.117,-0.076 -0.232,-0.114 -0.345,-0.114c-0.113,0 -0.22,0.027 -0.319,0.083c-0.1,0.055 -0.22,0.138 -0.359,0.248c-0.156,0.153 -0.362,0.299 -0.619,0.439c-0.256,0.141 -0.538,0.264 -0.846,0.37c-0.309,0.106 -0.628,0.191 -0.958,0.255c-0.33,0.063 -0.651,0.095 -0.964,0.095c-0.347,0 -0.717,-0.047 -1.107,-0.14c-0.391,-0.093 -0.76,-0.248 -1.108,-0.465c-0.347,-0.217 -0.653,-0.507 -0.918,-0.872c-0.265,-0.366 -0.441,-0.82 -0.528,-1.363l9.38,0c0.547,0 0.962,-0.032 1.244,-0.096c0.283,-0.063 0.484,-0.178 0.606,-0.344c0.122,-0.165 0.189,-0.388 0.202,-0.668c0.013,-0.281 0.02,-0.641 0.02,-1.083c0,-0.679 -0.098,-1.339 -0.294,-1.981c-0.195,-0.641 -0.471,-1.244 -0.827,-1.808c-0.356,-0.565 -0.781,-1.085 -1.277,-1.561c-0.495,-0.475 -1.04,-0.883 -1.635,-1.222c-0.594,-0.34 -1.231,-0.603 -1.908,-0.79c-0.677,-0.187 -1.377,-0.28 -2.098,-0.28c-0.79,0 -1.541,0.102 -2.253,0.306c-0.713,0.203 -1.373,0.488 -1.981,0.853c-0.607,0.365 -1.157,0.804 -1.648,1.318c-0.49,0.514 -0.907,1.076 -1.25,1.688c-0.343,0.611 -0.608,1.267 -0.795,1.968c-0.187,0.7 -0.28,1.424 -0.28,2.171c0,1.198 0.234,2.306 0.703,3.325c0.469,1.019 1.103,1.904 1.903,2.655c0.799,0.752 1.728,1.34 2.787,1.764c1.06,0.425 2.185,0.637 3.375,0.637c1.068,0 2.08,-0.193 3.035,-0.579Zm-3.687,-12.221c-0.338,0 -0.666,0.065 -0.983,0.197c-0.317,0.132 -0.615,0.308 -0.893,0.529c-0.278,0.22 -0.527,0.471 -0.749,0.751c-0.221,0.28 -0.402,0.565 -0.54,0.853l6.657,0c-0.183,-0.331 -0.38,-0.636 -0.593,-0.917c-0.213,-0.28 -0.456,-0.526 -0.73,-0.738c-0.273,-0.213 -0.586,-0.378 -0.938,-0.497c-0.351,-0.119 -0.762,-0.178 -1.231,-0.178Zm8.055,11.711c-0.069,0.115 -0.091,0.232 -0.065,0.35l0.026,0.128c0.061,0.136 0.135,0.229 0.221,0.28c0.087,0.051 0.191,0.076 0.313,0.076l4.534,0c0.139,0 0.282,-0.055 0.43,-0.165c0.147,-0.111 0.269,-0.259 0.364,-0.446l2.345,-4.127l2.319,4.076c0.191,0.442 0.482,0.662 0.873,0.662l4.221,0c0.278,0 0.476,-0.044 0.593,-0.133c0.117,-0.089 0.18,-0.202 0.189,-0.338c0.009,-0.136 -0.024,-0.284 -0.098,-0.446c-0.074,-0.161 -0.163,-0.314 -0.267,-0.458l-5.068,-6.929l5.094,-7.031c0.104,-0.119 0.161,-0.229 0.169,-0.331c0.009,-0.102 -0.013,-0.191 -0.065,-0.267c-0.052,-0.077 -0.123,-0.136 -0.215,-0.179c-0.091,-0.042 -0.189,-0.063 -0.293,-0.063l-4.13,0c-0.173,0 -0.323,0.048 -0.449,0.146c-0.126,0.098 -0.263,0.257 -0.41,0.478c-0.157,0.246 -0.341,0.547 -0.554,0.904c-0.213,0.357 -0.434,0.724 -0.664,1.102c-0.231,0.378 -0.454,0.743 -0.671,1.095c-0.218,0.353 -0.409,0.643 -0.574,0.873l-2.488,-3.936c-0.139,-0.195 -0.263,-0.355 -0.371,-0.478c-0.109,-0.123 -0.237,-0.184 -0.385,-0.184l-4.09,0c-0.235,0 -0.402,0.036 -0.502,0.108c-0.1,0.072 -0.156,0.161 -0.169,0.267c-0.013,0.106 0.011,0.223 0.071,0.351c0.061,0.127 0.135,0.246 0.222,0.356l4.911,6.827l-5.185,7.146c-0.052,0.076 -0.113,0.172 -0.182,0.286Zm18.242,-14.348c0,-0.272 0.078,-0.505 0.235,-0.7c0.156,-0.196 0.399,-0.293 0.729,-0.293l2.984,0c0.104,0 0.217,0.023 0.339,0.07c0.122,0.046 0.234,0.114 0.338,0.203c0.105,0.09 0.193,0.194 0.267,0.312c0.074,0.119 0.111,0.255 0.111,0.408l0,14.202c0,0.322 -0.091,0.566 -0.273,0.732c-0.183,0.166 -0.443,0.248 -0.782,0.248l-2.984,0c-0.642,0 -0.964,-0.326 -0.964,-0.98l0,-14.202Z"/>
    </symbol>
    <symbol viewBox="0 0 16 15" id="s_agraph">
        <path d="M13 0C12.4477 0 12 0.447715 12 1V14C12 14.5523 12.4477 15 13 15H15C15.5523 15 16 14.5523 16 14V1C16 0.447715 15.5523 0 15 0H13ZM6 5C6 4.44772 6.44772 4 7 4H9C9.55229 4 10 4.44772 10 5V13.9091C10 14.4614 9.55229 14.9091 9 14.9091H7C6.44772 14.9091 6 14.4614 6 13.9091V5ZM0 9.86364C0 9.31135 0.447715 8.86364 1 8.86364H3C3.55228 8.86364 4 9.31135 4 9.86364V14C4 14.5523 3.55228 15 3 15H1C0.447715 15 0 14.5523 0 14V9.86364Z"/>
    </symbol>
    <symbol viewBox="0 0 14 11" id="s_amail">
        <path d="M12.6 0H1.4C0.63 0 0.007 0.61875 0.007 1.375L0 9.625C0 10.3813 0.63 11 1.4 11H12.6C13.37 11 14 10.3813 14 9.625V1.375C14 0.61875 13.37 0 12.6 0ZM14 2.61905L7 6.11111L0 2.61905V1.22222L7 4.71429L14 1.22222V2.61905Z"/>
    </symbol>
    <symbol viewBox="0 0 18 15" id="s_aprint">
        <path d="M5 2C5 0.89543 5.89543 0 7 0H11C12.1046 0 13 0.895431 13 2H16C17.1046 2 18 2.89543 18 4V9C18 10.1046 17.1046 11 16 11H15V14C15 14.5523 14.5523 15 14 15H4C3.44772 15 3 14.5523 3 14V11H2C0.89543 11 0 10.1046 0 9V4C0 2.89543 0.895431 2 2 2L5 2ZM3 6C3.55228 6 4 5.55228 4 5C4 4.44772 3.55228 4 3 4C2.44772 4 2 4.44772 2 5C2 5.55228 2.44772 6 3 6ZM6 10C5.44772 10 5 10.4477 5 11V12C5 12.5523 5.44772 13 6 13H12C12.5523 13 13 12.5523 13 12V11C13 10.4477 12.5523 10 12 10H6Z"/>
    </symbol>
    <symbol viewBox="0 0 16 13" id="s_areply">
        <path d="M6.66667 3.25142V0.487654C6.66667 0.292007 6.546 0.115209 6.36133 0.0385098C6.17733 -0.0375393 5.962 0.000810236 5.81867 0.137959L0.152 5.50039C0.0546667 5.59204 0 5.71814 0 5.85009C0 5.98204 0.0546667 6.10813 0.152 6.19978L5.81867 11.5622C5.96333 11.6987 6.178 11.7371 6.36133 11.6617C6.546 11.585 6.66667 11.4082 6.66667 11.2125V8.45006H7.612C10.7027 8.45006 13.552 10.088 15.0473 12.7218L15.0613 12.7465C15.1507 12.9051 15.32 13 15.5 13C15.5413 13 15.5827 12.9955 15.624 12.9851C15.8453 12.9298 16 12.7355 16 12.5125C16 7.45947 11.8287 3.33852 6.66667 3.25142Z"/>
    </symbol>
    <symbol viewBox="0 0 16 13" id="s_anext">
        <path d="M9.333,3.251l0,-2.763c0,-0.196 0.121,-0.373 0.306,-0.449c0.184,-0.077 0.399,-0.038 0.542,0.099l5.667,5.362c0.097,0.092 0.152,0.218 0.152,0.35c0,0.132 -0.055,0.258 -0.152,0.35l-5.667,5.362c-0.144,0.137 -0.359,0.175 -0.542,0.1c-0.185,-0.077 -0.306,-0.254 -0.306,-0.449l0,-2.763l-0.945,0c-3.091,0 -5.94,1.638 -7.435,4.272l-0.014,0.024c-0.09,0.159 -0.259,0.254 -0.439,0.254c-0.041,0 -0.083,-0.004 -0.124,-0.015c-0.221,-0.055 -0.376,-0.249 -0.376,-0.472c0,-5.054 4.171,-9.174 9.333,-9.262Z"/>
    </symbol>
    <symbol viewBox="0 0 15 15" id="s_asettings">
        <path d="M2.21265 10.4544C1.97916 10.0417 1.79455 9.60176 1.66151 9.14557L0.608146 9.02335C0.260634 8.98262 0 8.68936 0 8.34178V6.72067C0 6.3731 0.260634 6.07983 0.608146 6.0391L1.60724 5.92505C1.73213 5.42542 1.92218 4.94479 2.17195 4.49403L1.54751 3.70384C1.33032 3.42958 1.35204 3.03856 1.5991 2.79146L2.7448 1.64555C2.99186 1.40116 3.38281 1.37672 3.65702 1.59395L4.40363 2.18592C4.88146 1.9008 5.39458 1.68356 5.93214 1.53965L6.04073 0.608255C6.08146 0.260681 6.37467 0 6.72218 0H8.343C8.69051 0 8.98373 0.260681 9.02445 0.608255L9.13305 1.53965C9.657 1.68085 10.1566 1.88993 10.6235 2.16419L11.343 1.59395C11.6172 1.37672 12.0082 1.39844 12.2552 1.64555L13.3982 2.78874C13.6426 3.03584 13.667 3.42686 13.4498 3.70112L12.8634 4.44243C13.1131 4.88776 13.3086 5.36296 13.4389 5.85988L14.3919 5.97122C14.7394 6.01195 15 6.30521 15 6.65279V8.2739C15 8.62147 14.7394 8.91474 14.3919 8.95547L13.4253 9.0668C13.2896 9.56915 13.086 10.0498 12.8253 10.5005L13.4525 11.2962C13.6697 11.5704 13.648 11.9614 13.4009 12.2085L12.2552 13.3545C12.0081 13.5988 11.6172 13.6233 11.343 13.406L10.5366 12.7679C10.0778 13.0259 9.58913 13.2241 9.07872 13.3572L8.95926 14.3917C8.91854 14.7393 8.62533 15 8.27782 15H6.657C6.30949 15 6.01627 14.7393 5.97555 14.3917L5.85066 13.3192C5.37555 13.1834 4.91944 12.9906 4.49048 12.7435L3.65699 13.4033C3.38278 13.6206 2.99183 13.5989 2.74477 13.3518L1.59907 12.2059C1.35473 11.9588 1.33029 11.5677 1.54749 11.2935L2.21265 10.4544ZM10.2136 7.44029C10.2136 5.9631 9.01085 4.76016 7.53392 4.76016C6.057 4.76016 4.85428 5.9631 4.85428 7.44029C4.85428 8.91748 6.05702 10.1204 7.53392 10.1204C9.01085 10.1204 10.2136 8.91748 10.2136 7.44029Z"/>
    </symbol>
    <symbol viewBox="0 0 13 15" id="s_adelete" fill-rule="evenodd">
        <path d="M3 0C2.44772 0 2 0.447715 2 1C2 1.55228 2.44772 2 3 2H8C8.55228 2 9 1.55228 9 1C9 0.447715 8.55229 0 8 0H3ZM1 3H2H4H7H9H12C12.5523 3 13 3.44772 13 4C13 4.55228 12.5523 5 12 5H11V13C11 14.1046 10.1046 15 9 15H7H4H2C0.89543 15 0 14.1046 0 13V5C0 4.79502 0.0308361 4.59725 0.0881225 4.41106C0.0315101 4.28567 0 4.14652 0 4C0 3.44772 0.447715 3 1 3ZM8 13H9V5H8V13ZM6 5V13H5V5H6ZM2 5H3V13H2V5Z"/>
    </symbol>
    <symbol viewBox="0 0 15 15" id="s_aedit">
        <path d="M14.6941 1.7638L13.3333 0.396352C12.8074 -0.132117 11.9535 -0.132117 11.4258 0.396352L10.1223 1.70623L13.1736 4.77251L14.6941 3.24461C15.102 2.8347 15.102 2.17368 14.6941 1.7638ZM9.32737 2.50331L12.3787 5.56956L4.65493 13.3312L1.60532 10.2649L9.32737 2.50331ZM0.428543 14.9899C0.178599 15.051 -0.0470393 14.8259 0.00849116 14.5748L0.779139 11.0952L3.82875 14.1614L0.428543 14.9899Z"/>
    </symbol>
    <symbol viewBox="0 0 18 11" id="s_aeye">
        <path d="M9 0C5.56091 0 2.44216 1.92896 0.140841 5.06211C-0.0469469 5.31881 -0.0469469 5.67742 0.140841 5.93411C2.44216 9.07104 5.56091 11 9 11C12.4391 11 15.5578 9.07104 17.8592 5.93789C18.0469 5.68119 18.0469 5.32258 17.8592 5.06589C15.5578 1.92896 12.4391 0 9 0ZM9.2467 9.37303C6.96379 9.52025 5.07855 7.59128 5.22215 5.24708C5.33998 3.31434 6.86806 1.74777 8.7533 1.62697C11.0362 1.47975 12.9214 3.40872 12.7778 5.75292C12.6563 7.68188 11.1283 9.24846 9.2467 9.37303ZM6.96747 5.3641C6.88647 6.62491 7.90273 7.66301 9.13256 7.58373C10.1451 7.51956 10.9699 6.67776 11.0362 5.63212C11.1172 4.37131 10.101 3.33322 8.87113 3.41249C7.85486 3.48044 7.03007 4.32224 6.96747 5.3641Z"/>
    </symbol>
    <symbol viewBox="0 0 6 6" id="s_star">
        <path d="M0.381,1.559l2.127,0.854l-0.111,-2.413l1.206,0l-0.111,2.413l2.127,-0.854l0.381,1.19l-2.222,0.636l1.428,1.878l-0.952,0.737l-1.254,-2.028l-1.254,2.028l-0.952,-0.737l1.428,-1.878l-2.222,-0.636l0.381,-1.19Z"/>
    </symbol>
    <symbol viewBox="0 0 118 68" id="s_a_d">
        <path d="M114.425,17.509c4.433,-3.99 4.433,-10.943 0,-14.932c-3.815,-3.433 -9.603,-3.436 -13.422,-0.007l-42.128,37.829l-42.128,-37.829c-3.819,-3.429 -9.607,-3.426 -13.422,0.007c-4.433,3.989 -4.433,10.942 0,14.932l55.55,49.991l55.55,-49.991Z"/>
    </symbol>
    <symbol viewBox="0 0 118 68" id="s_a_u">
        <path d="M3.325,49.991c-4.433,3.99 -4.433,10.943 0,14.932c3.815,3.433 9.603,3.436 13.422,0.007l42.128,-37.829l42.128,37.829c3.819,3.429 9.607,3.426 13.422,-0.007c4.433,-3.989 4.433,-10.942 0,-14.932l-55.55,-49.991l-55.55,49.991Z"/>
    </symbol>
    <symbol viewBox="0 0 68 118" id="s_a_l">
        <path d="M49.991,114.425c3.99,4.433 10.943,4.433 14.932,0c3.433,-3.815 3.436,-9.603 0.007,-13.422l-37.829,-42.128l37.829,-42.128c3.429,-3.819 3.426,-9.607 -0.007,-13.422c-3.989,-4.433 -10.942,-4.433 -14.932,0l-49.991,55.55l49.991,55.55Z"/>
    </symbol>
    <symbol viewBox="0 0 68 118" id="s_a_r">
        <path d="M17.509,3.325c-3.99,-4.433 -10.943,-4.433 -14.932,0c-3.433,3.815 -3.436,9.603 -0.007,13.422l37.829,42.128l-37.829,42.128c-3.429,3.819 -3.426,9.607 0.007,13.422c3.989,4.433 10.942,4.433 14.932,0l49.991,-55.55l-49.991,-55.55Z"/>
    </symbol>
    <symbol viewBox="0 0 84 54" id="s_as_d">
        <path d="M2.892,16.269c-3.846,-3.711 -3.857,-9.869 -0.025,-13.594c3.653,-3.55 9.46,-3.569 13.136,-0.044l25.997,24.931l25.997,-24.931c3.676,-3.525 9.483,-3.506 13.136,0.044c3.832,3.725 3.821,9.883 -0.025,13.594l-39.108,37.731l-39.108,-37.731Z"/>
    </symbol>
    <symbol viewBox="0 0 84 54" id="s_as_u">
        <path d="M81.108,37.731c3.846,3.711 3.857,9.869 0.025,13.594c-3.653,3.55 -9.46,3.569 -13.136,0.044l-25.997,-24.931l-25.997,24.931c-3.676,3.525 -9.483,3.506 -13.136,-0.044c-3.832,-3.725 -3.821,-9.883 0.025,-13.594l39.108,-37.731l39.108,37.731Z"/>
    </symbol>
    <symbol viewBox="0 0 54 84" id="s_as_r">
        <path d="M16.269,81.108c-3.711,3.846 -9.869,3.857 -13.594,0.025c-3.55,-3.653 -3.569,-9.46 -0.044,-13.136l24.931,-25.997l-24.931,-25.997c-3.525,-3.676 -3.506,-9.483 0.044,-13.136c3.725,-3.832 9.883,-3.821 13.594,0.025l37.731,39.108l-37.731,39.108Z"/>
    </symbol>
    <symbol viewBox="0 0 54 84" id="s_as_l">
        <path d="M37.731,2.892c3.711,-3.846 9.869,-3.857 13.594,-0.025c3.55,3.653 3.569,9.46 0.044,13.136l-24.931,25.997l24.931,25.997c3.525,3.676 3.506,9.483 -0.044,13.136c-3.725,3.832 -9.883,3.821 -13.594,-0.025l-37.731,-39.108l37.731,-39.108Z"/>
    </symbol>
    <symbol viewBox="0 0 81 130" id="s_ab_l">
        <path d="M61.245,126.348c4.519,4.536 11.863,4.536 16.382,0c4.494,-4.511 4.498,-11.806 0.009,-16.322l-44.885,-45.151l44.885,-45.151c4.489,-4.515 4.485,-11.811 -0.009,-16.322c-4.519,-4.536 -11.863,-4.536 -16.382,0l-61.245,61.473l61.245,61.473Z"/>
    </symbol>
    <symbol viewBox="0 0 81 130" id="s_ab_r">
        <path d="M19.755,3.402c-4.519,-4.536 -11.863,-4.536 -16.382,0c-4.494,4.511 -4.498,11.806 -0.009,16.322l44.885,45.151l-44.885,45.151c-4.489,4.515 -4.485,11.811 0.009,16.322c4.519,4.536 11.863,4.536 16.382,0l61.245,-61.473l-61.245,-61.473Z"/>
    </symbol>
    <symbol viewBox="0 0 130 81" id="s_ab_d">
        <path d="M126.348,19.755c4.536,-4.519 4.536,-11.863 0,-16.382c-4.511,-4.494 -11.806,-4.498 -16.322,-0.009l-45.151,44.885l-45.151,-44.885c-4.515,-4.489 -11.811,-4.485 -16.322,0.009c-4.536,4.519 -4.536,11.863 0,16.382l61.473,61.245l61.473,-61.245Z"/>
    </symbol>
    <symbol viewBox="0 0 130 81" id="s_ab_u">
        <path d="M3.402,61.245c-4.536,4.519 -4.536,11.863 0,16.382c4.511,4.494 11.806,4.498 16.322,0.009l45.151,-44.885l45.151,44.885c4.515,4.489 11.811,4.485 16.322,-0.009c4.536,-4.519 4.536,-11.863 0,-16.382l-61.473,-61.245l-61.473,61.245Z"/>
    </symbol>
    <symbol viewBox="0 0 8 20" id="s_al_d">
        <path d="M3.811,19.977c-0.23,-0.03 -0.44,-0.12 -0.6,-0.26l-0.23,-0.201l-2.631,-2.784c-0.23,-0.19 -0.35,-0.451 -0.35,-0.701c0,-0.251 0.12,-0.501 0.35,-0.692c0.45,-0.391 1.18,-0.391 1.64,0l1.011,1.201l0,-15.538c0,-0.551 0.45,-1.002 1,-1.002c0.55,0 1,0.451 1,1.002l0,15.538l1.021,-1.201c0.45,-0.391 1.19,-0.391 1.64,0c0.451,0.381 0.451,1.002 0,1.393l-2.861,2.985c-0.17,0.14 -0.38,0.23 -0.59,0.26c-0.14,0.03 -0.27,0.03 -0.4,0Z"/>
    </symbol>
    <symbol viewBox="0 0 8 20" id="s_al_u">
        <path d="M4.189,0.022c0.23,0.031 0.44,0.121 0.6,0.261l0.23,0.2l2.631,2.785c0.23,0.19 0.35,0.451 0.35,0.701c0,0.251 -0.12,0.501 -0.35,0.692c-0.45,0.391 -1.18,0.391 -1.64,0l-1.011,-1.201l0,15.538c0,0.551 -0.45,1.002 -1,1.002c-0.55,0 -1,-0.451 -1,-1.002l0,-15.538l-1.021,1.201c-0.45,0.391 -1.19,0.391 -1.64,0c-0.451,-0.381 -0.451,-1.002 0,-1.393l2.861,-2.985c0.17,-0.14 0.38,-0.23 0.59,-0.261c0.14,-0.03 0.27,-0.03 0.4,0Z"/>
    </symbol>
    <symbol viewBox="0 0 20 8" id="s_al_l">
        <path d="M0.022,3.811c0.031,-0.23 0.121,-0.44 0.261,-0.6l0.2,-0.23l2.785,-2.631c0.19,-0.23 0.451,-0.35 0.701,-0.35c0.251,0 0.501,0.12 0.692,0.35c0.391,0.45 0.391,1.18 0,1.64l-1.201,1.011l15.538,0c0.551,0 1.002,0.45 1.002,1c0,0.55 -0.451,1 -1.002,1l-15.538,0l1.201,1.021c0.391,0.45 0.391,1.19 0,1.64c-0.381,0.451 -1.002,0.451 -1.393,0l-2.985,-2.861c-0.14,-0.17 -0.23,-0.38 -0.261,-0.59c-0.03,-0.14 -0.03,-0.27 0,-0.4Z"/>
    </symbol>
    <symbol viewBox="0 0 20 8" id="s_al_r">
        <path fill-rule="evenodd" clip-rule="evenodd" d="M19.9775 4.18878C19.9474 4.41882 19.8572 4.62885 19.7169 4.78887L19.5165 5.01891L16.7322 7.64995C16.5418 7.87998 16.2812 8 16.0307 8C15.7802 8 15.5296 7.87998 15.3392 7.64995C14.9484 7.19987 14.9484 6.46976 15.3392 6.00969L16.5402 4.99891L1.00211 4.99891C0.450951 4.99891 0 4.54884 0 3.99875C0 3.44866 0.450951 2.99859 1.00211 2.99859L16.5402 2.99859L15.3392 1.97781C14.9484 1.52774 14.9484 0.787623 15.3392 0.337553C15.72 -0.112518 16.3413 -0.112518 16.7322 0.337553L19.7169 3.19862C19.8572 3.36865 19.9474 3.57868 19.9775 3.78872C20.0075 3.92874 20.0075 4.05876 19.9775 4.18878Z"/>
    </symbol>
    <symbol viewBox="0 0 19 19" id="s_ac_l" fill-rule="evenodd">
        <path d="M0 9.5C0 14.7467 4.25329 19 9.5 19C14.7467 19 19 14.7467 19 9.5C19 4.25329 14.7467 0 9.5 0C4.25329 0 0 4.25329 0 9.5ZM10.6044 6.5995C10.3306 6.28241 9.83982 6.27987 9.56269 6.59412L7 9.5L9.56269 12.4059C9.83982 12.7201 10.3306 12.7176 10.6044 12.4005C10.8309 12.1383 10.8283 11.749 10.5984 11.4898L8.8332 9.5L10.5984 7.51021C10.8283 7.25104 10.8309 6.8617 10.6044 6.5995Z"/>
    </symbol>
    <symbol viewBox="0 0 19 19" id="s_ac_r">
        <path fill-rule="evenodd" clip-rule="evenodd" d="M19 9.5C19 4.25329 14.7467 0 9.5 0C4.25329 0 0 4.25329 0 9.5C0 14.7467 4.25329 19 9.5 19C14.7467 19 19 14.7467 19 9.5ZM8.39557 12.4005C8.66945 12.7176 9.16018 12.7201 9.43731 12.4059L12 9.5L9.43731 6.59412C9.16018 6.27987 8.66945 6.28241 8.39557 6.5995C8.16911 6.8617 8.17169 7.25104 8.40161 7.51021L10.1668 9.5L8.40161 11.4898C8.17169 11.749 8.16911 12.1383 8.39557 12.4005Z"/>
    </symbol>
    <symbol viewBox="0 0 19 19" id="s_ac_d" fill-rule="evenodd">
        <path d="M9.5 19C14.7467 19 19 14.7467 19 9.5C19 4.25329 14.7467 0 9.5 0C4.25329 0 0 4.25329 0 9.5C0 14.7467 4.25329 19 9.5 19ZM6.5995 8.39557C6.28241 8.66945 6.27987 9.16018 6.59412 9.43731L9.5 12L12.4059 9.43731C12.7201 9.16018 12.7176 8.66945 12.4005 8.39557C12.1383 8.16911 11.749 8.17169 11.4898 8.40161L9.5 10.1668L7.51021 8.40161C7.25104 8.17169 6.8617 8.16911 6.5995 8.39557Z"/>
    </symbol>
    <symbol viewBox="0 0 19 19" id="s_ac_u" fill-rule="evenodd">
        <path d="M9.5,0c-5.247,0 -9.5,4.253 -9.5,9.5c0,5.247 4.253,9.5 9.5,9.5c5.247,0 9.5,-4.253 9.5,-9.5c0,-5.247 -4.253,-9.5 -9.5,-9.5Zm2.9,10.604c0.317,-0.273 0.32,-0.764 0.005,-1.041l-2.905,-2.563l-2.905,2.563c-0.315,0.277 -0.312,0.768 0.005,1.041c0.261,0.227 0.651,0.224 0.911,-0.005l1.989,-1.766l1.989,1.766c0.26,0.229 0.65,0.232 0.911,0.005Z"/>
    </symbol>
    <symbol viewBox="0 0 60 60" id="s_circle">
        <path d="M29.9995 0C10.999 0 0 10.9994 0 29.9997C0 49 10.999 60 29.9995 60C49 60 60 48.9994 60 29.9997C60 11 49 0 29.9995 0Z"/>
    </symbol>
    <symbol viewBox="0 0 43 12" id="s_rect">
        <rect width="43" height="12" rx="6"/>
    </symbol>
    <symbol viewBox="0 0 27 20" id="s_check">
        <path d="M9.38,15.248l-6.997,-7.003l-2.383,2.368l9.38,9.387l17.62,-17.632l-2.366,-2.368l-15.254,15.248Z"/>
    </symbol>
    <symbol viewBox="0 0 23 23" id="s_ccheck" fill-rule="evenodd">
        <path d="M23 11.5C23 17.8513 17.8513 23 11.5 23C5.14873 23 0 17.8513 0 11.5C0 5.14873 5.14873 0 11.5 0C17.8513 0 23 5.14873 23 11.5ZM6.94667 11.2733L9.72667 14.0533L15.7867 8L16.7267 8.94L9.72667 15.94L6 12.2133L6.94667 11.2733Z"/>
    </symbol>
    <symbol viewBox="0 0 23 23" id="s_ccheck_sub">
        <circle cx="11.5" cy="11.5" r="11"/>
    </symbol>
    <symbol viewBox="0 0 17 17" id="s_scheck">
        <path d="M14 0H3C1.34315 0 0 1.34315 0 3V14C0 15.6569 1.34315 17 3 17H14C15.6569 17 17 15.6569 17 14V3C17 1.34315 15.6569 0 14 0ZM4.70603 8.47355L6.77937 10.5743L11.2989 6L12 6.71033L6.77937 12L4 9.18388L4.70603 8.47355Z"/>
    </symbol>
    <symbol viewBox="0 0 17 17" id="s_ccross">
        <path d="M8.5 17C13.1944 17 17 13.1944 17 8.5C17 3.80558 13.1944 0 8.5 0C3.80558 0 0 3.80558 0 8.5C0 13.1944 3.80558 17 8.5 17ZM8.5 16C4.35786 16 1 12.6421 1 8.5C1 4.35786 4.35786 1 8.5 1C12.6421 1 16 4.35786 16 8.5C16 12.6421 12.6421 16 8.5 16ZM5 11.1723L5.8278 12L8.49994 9.32826L11.1713 12L12 11.1712L9.32833 8.49999L12 5.82872L11.1712 5L8.49992 7.67174L5.82768 5L5 5.8278L7.67181 8.50001L5 11.1723Z"/>
    </symbol>
    <symbol viewBox="0 0 26 26" id="s_ccross2">
        <path d="M26 13C26 20.1797 20.1797 26 13 26C5.8203 26 0 20.1797 0 13C0 5.8203 5.8203 0 13 0C20.1797 0 26 5.8203 26 13ZM17.9497 8.05025C17.581 7.68155 16.9832 7.68155 16.6145 8.05025L13 11.6648L9.38546 8.05025C9.01675 7.68155 8.41896 7.68155 8.05025 8.05025C7.68155 8.41896 7.68155 9.01675 8.05025 9.38546L11.6648 13L8.05025 16.6145C7.68155 16.9832 7.68155 17.581 8.05025 17.9497C8.41896 18.3185 9.01675 18.3185 9.38546 17.9497L13 14.3352L16.6145 17.9497C16.9832 18.3185 17.581 18.3185 17.9497 17.9497C18.3185 17.581 18.3185 16.9832 17.9497 16.6145L14.3352 13L17.9497 9.38546C18.3185 9.01675 18.3185 8.41896 17.9497 8.05025Z"/>
    </symbol>
    <symbol viewBox="0 0 17 17" id="s_cqmark" fill-rule="evenodd">
        <path d="M17 8.5C17 13.1944 13.1944 17 8.5 17C3.80558 17 0 13.1944 0 8.5C0 3.80558 3.80558 0 8.5 0C13.1944 0 17 3.80558 17 8.5ZM10.035 8.74C9.86167 8.89333 9.73833 9.055 9.665 9.225C9.59167 9.395 9.555 9.61666 9.555 9.89H8.355C8.355 9.71 8.36167 9.545 8.375 9.395C8.38833 9.245 8.41333 9.10667 8.45 8.98C8.48667 8.85333 8.53667 8.73333 8.6 8.62C8.66333 8.50667 8.74833 8.39 8.855 8.27L9.205 7.885C9.305 7.775 9.39 7.67 9.46 7.57C9.53 7.47 9.58167 7.36667 9.615 7.26C9.64833 7.15333 9.665 7.03333 9.665 6.9C9.665 6.69333 9.59833 6.52 9.465 6.38C9.33167 6.24 9.15833 6.17 8.945 6.17C8.73167 6.17 8.55167 6.24667 8.405 6.4C8.25833 6.55333 8.185 6.77333 8.185 7.06H6.845C6.85167 6.74 6.90667 6.45 7.01 6.19C7.11333 5.93 7.25667 5.70833 7.44 5.525C7.62333 5.34167 7.845 5.20167 8.105 5.105C8.365 5.00833 8.65833 4.96 8.985 4.96C9.31167 4.96 9.605 5.00833 9.865 5.105C10.125 5.20167 10.345 5.33333 10.525 5.5C10.705 5.66667 10.8433 5.86333 10.94 6.09C11.0367 6.31667 11.085 6.56 11.085 6.82C11.085 7.21334 10.9917 7.56 10.805 7.86C10.6183 8.16 10.3617 8.45333 10.035 8.74ZM8.245 10.71H9.665V12H8.245V10.71Z"/>
    </symbol>
    <symbol viewBox="0 0 20 20" id="s_cross">
        <path d="M16.186,0.654c0.873,-0.872 2.287,-0.872 3.16,0c0.872,0.873 0.872,2.287 0,3.16l-6.187,6.186l6.187,6.186c0.872,0.873 0.872,2.287 0,3.16c-0.873,0.872 -2.287,0.872 -3.16,0l-6.186,-6.187l-6.186,6.187c-0.873,0.872 -2.287,0.872 -3.16,0c-0.872,-0.873 -0.872,-2.287 0,-3.16l6.187,-6.186l-6.187,-6.186c-0.872,-0.873 -0.872,-2.287 0,-3.16c0.873,-0.872 2.287,-0.872 3.16,0l6.186,6.187l6.186,-6.187Z"/>
    </symbol>
    <symbol viewBox="0 0 140 164" id="s_play">
        <path d="M15.084,1.434c-6.638,-3.982 -15.084,0.799 -15.084,8.538l0,144.056c0,7.739 8.446,12.52 15.084,8.538l120.08,-72.028c6.448,-3.867 6.448,-13.209 0,-17.076l-120.08,-72.028Z"/>
    </symbol>
    <symbol viewBox="0 0 14 17" id="s_dl">
        <path d="M6.21113 12.7169C6.37115 12.8572 6.58118 12.9474 6.81122 12.9775C6.94124 13.0075 7.07126 13.0075 7.21128 12.9775C7.42132 12.9474 7.63135 12.8572 7.80138 12.7169L11.6624 8.73217C12.1125 8.34134 12.1125 7.72003 11.6624 7.33923C11.2124 6.94841 10.4723 6.94841 10.0222 7.33923L8.00141 9.5402V1.00211C8.00141 0.450951 7.55134 0 7.00125 0C6.45116 0 6.00109 0.450951 6.00109 1.00211V9.5402L3.99031 7.33923C3.53024 6.94841 2.80013 6.94841 2.35005 7.33923C2.12002 7.52963 2 7.78016 2 8.03069C2 8.28122 2.12002 8.54177 2.35005 8.73217L5.98109 12.5165L6.21113 12.7169ZM0 16C0 15.4477 0.447716 15 1 15H13C13.5523 15 14 15.4477 14 16C14 16.5523 13.5523 17 13 17H1C0.447715 17 0 16.5523 0 16Z"/>
    </symbol>
    <symbol viewBox="0 0 24 22" id="s_dl2">
        <path d="M12.7433 17.1741C12.3461 17.6155 11.6539 17.6155 11.2567 17.1741L4.50207 9.66897C3.9229 9.02544 4.37959 8 5.24536 8H8V1C8 0.447715 8.44771 0 9 0H15C15.5523 0 16 0.447715 16 1V8H18.7546C19.6204 8 20.0771 9.02544 19.4979 9.66897L12.7433 17.1741ZM1 20C0.447715 20 0 20.4477 0 21C0 21.5523 0.447716 22 1 22H23C23.5523 22 24 21.5523 24 21C24 20.4477 23.5523 20 23 20H1Z"/>
    </symbol>
    <symbol viewBox="0 0 24 22" id="s_ul">
        <path d="M12.7508 0.347198C12.3526 -0.105436 11.6474 -0.105435 11.2492 0.347198L4.46086 8.06335C3.89252 8.70936 4.35123 9.72388 5.21166 9.72388H8V16.908C8 17.4602 8.44771 17.908 9 17.908H15C15.5523 17.908 16 17.4602 16 16.908V9.72388H18.7883C19.6488 9.72388 20.1075 8.70936 19.5391 8.06335L12.7508 0.347198ZM1 19.954C0.447715 19.954 0 20.4017 0 20.954V21C0 21.5523 0.447716 22 1 22H23C23.5523 22 24 21.5523 24 21V20.954C24 20.4017 23.5523 19.954 23 19.954H1Z"/>
    </symbol>
    <symbol viewBox="0 0 22 26" id="s_user">
        <path d="M11.0783 26V25.9997H10.9222H0C0 17.8199 7.01507 17.8218 8.57178 15.683L8.74992 14.7077C6.56282 13.5726 5.0189 10.836 5.0189 7.63541C5.0189 3.41881 7.69728 0 11.0004 0C14.3036 0 16.982 3.41881 16.982 7.63541C16.982 10.8088 15.4655 13.5283 13.3075 14.6813L13.5104 15.7897C15.2183 17.8248 22 17.9575 22 26H11.0783Z"/>
    </symbol>
    <symbol viewBox="0 0 20 22" id="s_user2">
        <path d="M18 18C18 15.7909 16.2091 14 14 14H6C3.79086 14 2 15.7909 2 18V19V21C2 21.5523 1.55228 22 1 22C0.447715 22 0 21.5523 0 21V19V18C0 14.6863 2.68629 12 6 12H14C17.3137 12 20 14.6863 20 18V19V21C20 21.5523 19.5523 22 19 22C18.4477 22 18 21.5523 18 21V19V18ZM15 5C15 2.23858 12.7614 0 10 0C7.23858 0 5 2.23858 5 5C5 7.76142 7.23858 10 10 10C12.7614 10 15 7.76142 15 5ZM7 5C7 3.34315 8.34315 2 10 2C11.6569 2 13 3.34315 13 5C13 6.65685 11.6569 8 10 8C8.34315 8 7 6.65685 7 5Z"/>
    </symbol>
    <symbol viewBox="0 0 30 20" id="s_camera">
        <path d="M3 0C1.34315 0 0 1.34315 0 3V17C0 18.6569 1.34315 20 3 20H19C20.6569 20 22 18.6569 22 17V11.4L28.4265 15.8986C29.0893 16.3625 30 15.8884 30 15.0793V4.92066C30 4.11163 29.0893 3.63748 28.4265 4.10142L22 8.6V3C22 1.34315 20.6569 0 19 0H3Z"/>
    </symbol>
    <symbol viewBox="0 0 26 21" id="s_router" fill-rule="evenodd">
        <path d="M5 0H7V9H19V0H21V9H23C24.6569 9 26 10.3431 26 12V18C26 19.6569 24.6569 21 23 21H3C1.34315 21 0 19.6569 0 18V12C0 10.3431 1.34315 9 3 9H5V0ZM9 14V16H5V14H9ZM13 14H11V16H13V14ZM15 14H17V16H15V14ZM21 14H19V16H21V14Z"/>
    </symbol>
    <symbol viewBox="0 0 24 16" id="s_menu">
        <path d="M14 1C14 0.447715 13.5523 0 13 0H1C0.447716 0 0 0.447715 0 1C0 1.55228 0.447716 2 1 2H13C13.5523 2 14 1.55228 14 1ZM24 15C24 14.4477 23.5523 14 23 14H11C10.4477 14 10 14.4477 10 15C10 15.5523 10.4477 16 11 16H23C23.5523 16 24 15.5523 24 15ZM23 7C23.5523 7 24 7.44772 24 8C24 8.55229 23.5523 9 23 9H1C0.447716 9 0 8.55229 0 8C0 7.44772 0.447716 7 1 7H23Z"/>
    </symbol>
    <symbol viewBox="0 0 16 15" id="s_home">
        <path d="M15.7313 6.66421L8.5526 0.212416C8.2375 -0.0708157 7.76235 -0.0707849 7.44738 0.212385L0.268688 6.66424C0.0162826 6.8911 -0.0670922 7.24063 0.0562199 7.55469C0.179563 7.86874 0.479875 8.07165 0.821342 8.07165H1.9679V14.5359C1.9679 14.7922 2.17859 15 2.43843 15H6.37323C6.63307 15 6.84376 14.7922 6.84376 14.5359V10.611H9.15631V14.5359C9.15631 14.7922 9.367 15 9.62684 15H13.5615C13.8213 15 14.032 14.7922 14.032 14.5359V8.07165H15.1788C15.5202 8.07165 15.8205 7.86871 15.9439 7.55469C16.067 7.2406 15.9837 6.8911 15.7313 6.66421Z"/>
    </symbol>
    <symbol viewBox="0 0 20 20" id="s_mag">
        <path d="M9.195,18.391c-5.078,0 -9.195,-4.117 -9.195,-9.196c0,-5.078 4.117,-9.195 9.195,-9.195c5.079,0 9.196,4.117 9.196,9.195c0,2.172 -0.753,4.167 -2.011,5.74l2.336,2.336c0.391,0.391 0.391,1.024 0,1.414l-0.031,0.031c-0.39,0.391 -1.023,0.391 -1.414,0l-2.336,-2.336c-1.573,1.258 -3.568,2.011 -5.74,2.011Zm0,-2.044c3.95,0 7.152,-3.202 7.152,-7.152c0,-3.95 -3.202,-7.152 -7.152,-7.152c-3.95,0 -7.152,3.202 -7.152,7.152c0,3.95 3.202,7.152 7.152,7.152Z"/>
    </symbol>
    <symbol viewBox="0 0 20 26" id="s_hand">
        <path d="M17.0681 5.5C17.0681 4.67157 17.7244 4 18.534 4C19.3437 4 20 4.67157 20 5.5V19C20 20.608 19.3892 26 12.5656 26C8.44435 26 6.24052 24.345 4.88011 22.229C3.5197 20.113 0.327827 15.17 0.327827 15.17C-0.250738 14.248 -0.0435492 13.066 0.792047 12.524C1.63057 11.994 2.775 12.304 3.36138 13.229L5.34042 16V3.5C5.34042 2.67157 5.99676 2 6.80638 2C7.61601 2 8.27234 2.67157 8.27234 3.5V11C8.27234 11.276 8.49126 11.5 8.76099 11.5C9.03073 11.5 9.24964 11.276 9.24964 11V1.5C9.24964 0.671573 9.90598 0 10.7156 0C11.5252 0 12.1816 0.671573 12.1816 1.5V11C12.1816 11.276 12.4005 11.5 12.6702 11.5C12.9399 11.5 13.1589 11.276 13.1589 11V2.5C13.1589 1.67157 13.8152 1 14.6248 1C15.4344 1 16.0908 1.67157 16.0908 2.5V12C16.0908 12.276 16.3097 12.5 16.5794 12.5C16.8492 12.5 17.0681 12.276 17.0681 12V5.5Z"/>
    </symbol>
    <symbol viewBox="0 0 18 22" id="s_shield">
        <path d="M17.1002 0C17.3439 0 17.5549 0.0906502 17.7333 0.272101C17.9109 0.453502 18 0.668163 18 0.916585V11.9164C18 12.7377 17.8432 13.5516 17.529 14.3585C17.2145 15.1654 16.8255 15.8816 16.3614 16.5071C15.8974 17.1326 15.3441 17.7414 14.7023 18.3334C14.0599 18.9256 13.4671 19.4169 12.9232 19.8087C12.3796 20.2001 11.8122 20.5703 11.2219 20.9184C10.6312 21.2668 10.2114 21.5035 9.9631 21.6275C9.71481 21.7518 9.51557 21.8472 9.36574 21.9138C9.25305 21.9712 9.13144 22 8.99988 22C8.86847 22 8.74671 21.9712 8.63411 21.9138C8.48418 21.8472 8.28494 21.7518 8.03655 21.6275C7.78821 21.5035 7.36856 21.2667 6.77795 20.9184C6.18733 20.5703 5.62011 20.2001 5.07644 19.8087C4.53277 19.4169 3.93984 18.9256 3.29756 18.3334C2.65537 17.7414 2.10234 17.1326 1.63821 16.5071C1.17409 15.8816 0.784973 15.1654 0.471023 14.3585C0.156926 13.5516 0 12.7377 0 11.9164V0.916585C0 0.668313 0.0891019 0.453452 0.267158 0.272101C0.445312 0.0906502 0.65627 0 0.90018 0H17.1002ZM12.3281 16.9516C14.7759 15.1175 16 13.3235 16 11.5691V2H9V19C10.2395 18.372 11.3489 17.6891 12.3281 16.9516Z"/>
    </symbol>
    <symbol viewBox="0 0 22 27" id="s_shieldcheck">
        <path d="M21.9398 4.21848C17.4077 4.21848 13.9356 2.9022 10.9996 0C8.06388 2.9022 4.59196 4.21848 0.0601962 4.21848C0.0601962 11.7764 -1.47822 22.6031 10.9995 27C23.4782 22.6031 21.9398 11.7765 21.9398 4.21848ZM10.0872 17.6897L6.41667 13.86L8.06008 12.1456L10.0872 14.2608L13.94 10.2414L15.5833 11.9557L10.0872 17.6897Z"/>
    </symbol>
    <symbol viewBox="0 0 70 47" id="s_rewind">
        <path d="M31.587,8.942c-5.775,0 -5.826,-8.942 -0.064,-8.942c5.777,0 5.829,8.942 0.064,8.942Zm-28.186,15.763c-1.363,-0.532 -2.945,0.573 -3.3,1.873c-0.418,1.52 0.513,2.769 1.871,3.3c0.309,0.121 0.619,0.242 0.929,0.363c2.471,0.969 4.941,1.937 7.527,2.572c1.385,0.232 2.122,-0.044 3.067,-0.905c0,0 1.838,-1.923 1.766,-1.785l4.856,6.51l0.212,7.773c0.001,3.459 5.368,3.459 5.367,0c0,-2.983 -0.297,-8.938 -0.297,-8.938c-0.054,-0.57 -0.254,-1.033 -0.537,-1.413c-0.271,-0.38 -4.421,-5.643 -4.421,-5.643c0,0 4.124,-5.886 6.101,-8.719c0.165,0.379 0.687,1.312 0.962,1.722c0.887,1.395 1.846,1.755 3.173,1.536c1.24,-0.206 2.482,-0.405 3.724,-0.604c1.211,-0.194 2.421,-0.388 3.63,-0.588c1.445,-0.239 2.231,-2.002 1.875,-3.298c-0.418,-1.519 -1.86,-2.113 -3.302,-1.875c-1.478,0.245 -2.961,0.484 -4.443,0.722c-0.258,0.041 -0.515,0.082 -0.773,0.124c-0.488,-1.143 -0.851,-2.333 -1.14,-3.543c-0.971,-4.103 -2.702,-5.228 -6.553,-4.621c-0.032,0.002 -0.339,0.057 -0.84,0.147c-2.097,0.377 -7.598,1.366 -10.574,1.612c-3.421,0.284 -3.45,5.651 0,5.365c2.078,-0.172 4.144,-0.416 6.199,-0.727c-1.86,2.667 -7.865,10.599 -8.632,11.411c-1.9,-0.589 -3.755,-1.316 -5.609,-2.043c-0.28,-0.11 -0.559,-0.219 -0.838,-0.328Z" fill-opacity=".2"/>
        <path d="M46.592,8.942c-5.776,0 -5.826,-8.942 -0.064,-8.942c5.776,0 5.828,8.942 0.064,8.942Zm-28.187,15.763c-1.363,-0.532 -2.945,0.573 -3.3,1.873c-0.417,1.52 0.513,2.769 1.871,3.3c0.31,0.121 0.62,0.242 0.929,0.363c2.471,0.969 4.941,1.937 7.527,2.572c1.386,0.232 2.122,-0.044 3.067,-0.905c0,0 1.839,-1.923 1.767,-1.785l4.855,6.51l0.213,7.773c0,3.459 5.368,3.459 5.367,0c0,-2.983 -0.298,-8.938 -0.298,-8.938c-0.053,-0.57 -0.254,-1.033 -0.536,-1.413c-0.272,-0.38 -4.422,-5.643 -4.422,-5.643c0,0 4.124,-5.886 6.102,-8.719c0.164,0.379 0.686,1.312 0.961,1.722c0.888,1.395 1.846,1.755 3.173,1.536c1.241,-0.206 2.483,-0.405 3.725,-0.604c1.21,-0.194 2.421,-0.388 3.63,-0.588c1.445,-0.239 2.231,-2.002 1.874,-3.298c-0.417,-1.519 -1.86,-2.113 -3.301,-1.875c-1.479,0.245 -2.962,0.484 -4.444,0.722c-0.257,0.041 -0.515,0.082 -0.772,0.124c-0.489,-1.143 -0.851,-2.333 -1.14,-3.543c-0.972,-4.103 -2.703,-5.228 -6.554,-4.621c-0.031,0.002 -0.338,0.057 -0.84,0.147c-2.097,0.377 -7.598,1.366 -10.574,1.612c-3.42,0.284 -3.449,5.651 0,5.365c2.078,-0.172 4.145,-0.416 6.2,-0.727c-1.86,2.667 -7.865,10.599 -8.632,11.411c-1.901,-0.589 -3.755,-1.316 -5.61,-2.043c-0.279,-0.11 -0.558,-0.219 -0.838,-0.328Z" fill-opacity=".4"/>
        <path d="M61.596,8.942c-5.775,0 -5.826,-8.942 -0.064,-8.942c5.777,0 5.829,8.942 0.064,8.942Zm-28.186,15.763c-1.363,-0.532 -2.946,0.573 -3.3,1.873c-0.418,1.52 0.513,2.769 1.87,3.3c0.31,0.121 0.62,0.242 0.93,0.363c2.471,0.969 4.941,1.937 7.527,2.572c1.385,0.232 2.121,-0.044 3.067,-0.905c0,0 1.838,-1.923 1.766,-1.785l4.856,6.51l0.212,7.773c0.001,3.459 5.368,3.459 5.367,0c0,-2.983 -0.297,-8.938 -0.297,-8.938c-0.054,-0.57 -0.254,-1.033 -0.537,-1.413c-0.272,-0.38 -4.421,-5.643 -4.421,-5.643c0,0 4.124,-5.886 6.101,-8.719c0.165,0.379 0.686,1.312 0.962,1.722c0.887,1.395 1.846,1.755 3.172,1.536c1.241,-0.206 2.483,-0.405 3.725,-0.604c1.211,-0.194 2.421,-0.388 3.63,-0.588c1.445,-0.239 2.231,-2.002 1.875,-3.298c-0.418,-1.519 -1.86,-2.113 -3.302,-1.875c-1.478,0.245 -2.961,0.484 -4.443,0.722c-0.258,0.041 -0.515,0.082 -0.773,0.124c-0.488,-1.143 -0.851,-2.333 -1.14,-3.543c-0.971,-4.103 -2.702,-5.228 -6.554,-4.621c-0.031,0.002 -0.338,0.057 -0.839,0.147c-2.097,0.377 -7.598,1.366 -10.574,1.612c-3.421,0.284 -3.45,5.651 0,5.365c2.078,-0.172 4.144,-0.416 6.199,-0.727c-1.86,2.667 -7.865,10.599 -8.632,11.411c-1.9,-0.589 -3.755,-1.316 -5.609,-2.043c-0.28,-0.11 -0.559,-0.219 -0.838,-0.328Z"/>
    </symbol>
    <symbol viewBox="0 0 22 22" id="s_euro">
        <path d="M0 11C0 4.9251 4.9251 0 11 0C17.0749 0 22 4.9251 22 11C22 17.0749 17.0749 22 11 22C4.9251 22 0 17.0749 0 11ZM13.8111 16.9436C14.1642 16.8486 14.5082 16.7218 14.8387 16.5724C15.1556 16.4276 15.237 16.1786 15.1103 15.8708C14.9745 15.5267 14.8296 15.1872 14.6757 14.8523C14.5399 14.5535 14.3634 14.4675 14.0374 14.5399C13.8536 14.5819 13.6716 14.63 13.4897 14.6781C13.2596 14.7389 13.0298 14.7997 12.7971 14.8477C11.9914 15.0152 11.1901 15.0288 10.3934 14.7798C9.39753 14.4675 8.8679 13.7477 8.54198 12.8152H11.2399C11.4481 12.8152 11.6202 12.6477 11.6202 12.435V11.584C11.6202 11.3757 11.4527 11.2037 11.2399 11.2037H8.28395C8.28395 11.1227 8.28343 11.0432 8.28293 10.9648C8.28193 10.8109 8.28095 10.661 8.28395 10.5111H11.2354C11.4436 10.5111 11.6156 10.3436 11.6156 10.1309V9.27983C11.6156 9.0716 11.4481 8.89959 11.2354 8.89959H8.65062C8.65062 8.89054 8.65062 8.88148 8.65514 8.87243C8.96296 8.16625 9.41564 7.60041 10.158 7.30617C11.0226 6.96667 11.9053 6.97572 12.7926 7.15679C13.0252 7.2043 13.255 7.26564 13.4851 7.32704C13.6715 7.37679 13.8581 7.42659 14.0465 7.46914C14.3543 7.53704 14.5354 7.4465 14.6667 7.16132C14.8055 6.86333 14.9332 6.55798 15.0599 6.25523C15.0737 6.22224 15.0874 6.18929 15.1012 6.15638C15.2325 5.83498 15.1556 5.61317 14.8568 5.43663C14.7798 5.39136 14.7029 5.35514 14.6214 5.32346C13.3765 4.83457 12.0909 4.6535 10.7646 4.86626C9.8321 5.01564 8.96296 5.33704 8.21152 5.92099C7.26543 6.65432 6.64979 7.62757 6.29218 8.76379L6.24691 8.89506H4.91605C4.70782 8.89506 4.5358 9.06255 4.5358 9.27531V10.1263C4.5358 10.3346 4.70329 10.5066 4.91605 10.5066H5.96173V11.1992H4.91605C4.70782 11.1992 4.5358 11.3667 4.5358 11.5794V12.4305C4.5358 12.6387 4.70329 12.8107 4.91605 12.8107H6.17901C6.20115 12.8834 6.22255 12.9562 6.2439 13.0287C6.31423 13.2678 6.38402 13.505 6.47778 13.7342C7.11605 15.2733 8.18436 16.3733 9.79589 16.8938C11.1313 17.3284 12.4712 17.3148 13.8111 16.9436Z"/>
    </symbol>
    <symbol viewBox="0 0 26 20" id="s_folder">
        <path d="M0 2C0 0.895431 0.895431 0 2 0H6.19003C6.67428 0 7.14209 0.175697 7.50661 0.494478L9.96397 2.64345C10.3285 2.96223 10.7963 3.13793 11.2806 3.13793H24C25.1046 3.13793 26 4.03336 26 5.13793V18C26 19.1046 25.1046 20 24 20H2C0.89543 20 0 19.1046 0 18V2Z"/>
    </symbol>
    <symbol viewBox="0 0 27 22" id="s_graph">
        <path d="M22 0C20.8954 0 20 0.89543 20 2V20C20 21.1046 20.8954 22 22 22H25C26.1046 22 27 21.1046 27 20V2C27 0.895431 26.1046 0 25 0H22ZM10 8C10 6.89543 10.8954 6 12 6H15C16.1046 6 17 6.89543 17 8V20C17 21.1046 16.1046 22 15 22H12C10.8954 22 10 21.1046 10 20V8ZM0 15C0 13.8954 0.895431 13 2 13H5C6.10457 13 7 13.8954 7 15V20C7 21.1046 6.10457 22 5 22H2C0.89543 22 0 21.1046 0 20V15Z"/>
    </symbol>
    <symbol viewBox="0 0 28 28" id="s_location">
        <path d="M28 14C28 21.732 21.732 28 14 28C6.26801 28 0 21.732 0 14C0 6.26801 6.26801 0 14 0C21.732 0 28 6.26801 28 14ZM14 7.84C11.2136 7.84 8.96 9.94336 8.96 12.544C8.96 16.072 14 21.28 14 21.28C14 21.28 19.04 16.072 19.04 12.544C19.04 9.94336 16.7864 7.84 14 7.84ZM14 14.56C13.0726 14.56 12.32 13.8074 12.32 12.88C12.32 11.9526 13.0726 11.2 14 11.2C14.9274 11.2 15.68 11.9526 15.68 12.88C15.68 13.8074 14.9274 14.56 14 14.56Z"/>
    </symbol>
    <symbol viewBox="0 0 21 28" id="s_location2">
        <path d="M0,9.8c0,-5.418 4.695,-9.8 10.5,-9.8c5.805,0 10.5,4.382 10.5,9.8c0,7.35 -9,18.2 -10.5,18.2c-1.5,0 -10.5,-10.85 -10.5,-18.2Zm7,0.821c0,1.954 1.568,3.54 3.5,3.54c1.932,0 3.5,-1.586 3.5,-3.54c0,-1.955 -1.568,-3.541 -3.5,-3.541c-1.932,0 -3.5,1.586 -3.5,3.541Z"/>
    </symbol>
    <symbol viewBox="0 0 24 22" id="s_mail">
        <path d="M23.8778 0.0881814C23.771 -0.00462701 23.6189 -0.0261591 23.4901 0.0330364L0.207821 10.7474C0.0824766 10.8051 0.00175994 10.9289 0.000253231 11.0658C-0.00125348 11.2027 0.0768085 11.3282 0.200933 11.3886L5.71299 14.0984C5.83382 14.1572 5.97789 14.1439 6.0858 14.064L15.2141 8.03659L8.53964 14.9382C8.46789 15.0113 8.4313 15.1114 8.43919 15.213L8.93992 21.6719C8.95104 21.815 9.0479 21.9374 9.18559 21.9822C9.2224 21.9942 9.26021 22 9.29759 22C9.40012 22 9.49985 21.9564 9.56923 21.8768L13.0664 17.8631L17.3896 19.909C17.4834 19.9534 17.592 19.9552 17.6874 19.9142C17.7827 19.873 17.8553 19.793 17.8865 19.6948L23.9835 0.46176C24.0261 0.327451 23.9846 0.18099 23.8778 0.0881814Z"/>
    </symbol>
    <symbol viewBox="0 0 22 26" id="s_noti">
        <path d="M2,0c-1.105,0 -2,0.895 -2,2l0,22.001c0,0.757 0.808,1.24 1.474,0.881l9.052,-4.876c0.296,-0.159 0.652,-0.159 0.948,0l9.052,4.876c0.666,0.359 1.474,-0.124 1.474,-0.881l0,-22.001c0,-1.105 -0.895,-2 -2,-2l-18,0Zm13.281,8.284c0.077,0.242 0.014,0.503 -0.163,0.681l-1.577,1.585c-0.067,0.067 -0.098,0.165 -0.082,0.26l0.372,2.237c0.033,0.196 -0.017,0.388 -0.14,0.539c-0.125,0.152 -0.305,0.239 -0.496,0.239c-0.104,0 -0.205,-0.026 -0.3,-0.077l-1.949,-1.056c-0.081,-0.044 -0.184,-0.044 -0.265,0l-1.949,1.056c-0.268,0.145 -0.604,0.073 -0.796,-0.162c-0.123,-0.151 -0.173,-0.342 -0.14,-0.539l0.372,-2.237c0.015,-0.095 -0.015,-0.193 -0.083,-0.26l-1.576,-1.584c-0.177,-0.178 -0.24,-0.439 -0.164,-0.682c0.077,-0.243 0.277,-0.417 0.522,-0.453l2.179,-0.327c0.093,-0.013 0.173,-0.073 0.214,-0.16l0.975,-2.036c0.109,-0.228 0.331,-0.37 0.579,-0.37c0.247,0 0.469,0.142 0.578,0.37l0.975,2.036c0.041,0.086 0.121,0.146 0.214,0.16l2.179,0.327c0.245,0.036 0.445,0.21 0.521,0.453Z"/>
    </symbol>
    <symbol viewBox="0 0 20 22" id="s_phone">
        <path d="M17.76 15.3123C16.4636 14.1756 15.148 13.4871 13.8675 14.6221L13.1029 15.308C12.5435 15.806 11.5034 18.1327 7.48203 13.39C3.46146 8.65343 5.85404 7.91594 6.41429 7.42227L7.18306 6.73543C8.45681 5.59786 7.97612 4.1658 7.05744 2.69167L6.50306 1.79878C5.58019 0.32809 4.57526 -0.637776 3.29816 0.498083L2.60811 1.11624C2.04367 1.53778 0.465926 2.90803 0.0832146 5.51114C-0.377379 8.63454 1.07559 12.2113 4.40442 16.1357C7.72907 20.0618 10.9842 22.0339 14.0677 21.9996C16.6303 21.9712 18.1779 20.5615 18.6619 20.0489L19.3545 19.4299C20.6282 18.2949 19.8368 17.1393 18.5396 16L17.76 15.3123Z"/>
    </symbol>
    <symbol viewBox="0 0 26 22" id="s_splay" fill-rule="evenodd">
        <path d="M3 0C1.34315 0 0 1.34315 0 3V15C0 16.6569 1.34315 18 3 18H12V20H6C5.44772 20 5 20.4477 5 21C5 21.5523 5.44772 22 6 22H12H14H20C20.5523 22 21 21.5523 21 21C21 20.4477 20.5523 20 20 20H14V18H23C24.6569 18 26 16.6569 26 15V3C26 1.34315 24.6569 0 23 0H3ZM11.4961 5.85494C10.8295 5.47399 10 5.95536 10 6.72318V11.2768C10 12.0446 10.8295 12.526 11.4961 12.1451L15.4806 9.86824C16.1524 9.48435 16.1524 8.51565 15.4806 8.13176L11.4961 5.85494Z"/>
    </symbol>
    <symbol viewBox="0 0 26 22" id="s_srec" fill-rule="evenodd">
        <path d="M3 0C1.34315 0 0 1.34315 0 3V15C0 16.6569 1.34315 18 3 18H12V20H6C5.44772 20 5 20.4477 5 21C5 21.5523 5.44772 22 6 22H12H14H20C20.5523 22 21 21.5523 21 21C21 20.4477 20.5523 20 20 20H14V18H23C24.6569 18 26 16.6569 26 15V3C26 1.34315 24.6569 0 23 0H3ZM18.752 5.664C19.178 5.664 19.5605 5.7285 19.8995 5.8575C20.2385 5.9865 20.531 6.1545 20.777 6.3615C21.023 6.5685 21.221 6.7995 21.371 7.0545C21.521 7.3095 21.623 7.566 21.677 7.824H20.291C20.249 7.686 20.1845 7.5525 20.0975 7.4235C20.0105 7.2945 19.901 7.1805 19.769 7.0815C19.637 6.9825 19.484 6.9045 19.31 6.8475C19.136 6.7905 18.947 6.762 18.743 6.762C18.473 6.762 18.224 6.8145 17.996 6.9195C17.768 7.0245 17.5715 7.1715 17.4065 7.3605C17.2415 7.5495 17.1125 7.7775 17.0195 8.0445C16.9265 8.3115 16.88 8.604 16.88 8.922C16.88 9.216 16.925 9.495 17.015 9.759C17.105 10.023 17.2325 10.254 17.3975 10.452C17.5625 10.65 17.7605 10.8075 17.9915 10.9245C18.2225 11.0415 18.479 11.1 18.761 11.1C18.983 11.1 19.1825 11.067 19.3595 11.001C19.5365 10.935 19.691 10.848 19.823 10.74C19.955 10.632 20.0645 10.509 20.1515 10.371C20.2385 10.233 20.306 10.089 20.354 9.939H21.785C21.689 10.251 21.554 10.5435 21.38 10.8165C21.206 11.0895 20.993 11.328 20.741 11.532C20.489 11.736 20.195 11.898 19.859 12.018C19.523 12.138 19.145 12.198 18.725 12.198C18.251 12.198 17.819 12.114 17.429 11.946C17.039 11.778 16.706 11.5485 16.43 11.2575C16.154 10.9665 15.941 10.62 15.791 10.218C15.641 9.816 15.566 9.381 15.566 8.913C15.566 8.445 15.6455 8.013 15.8045 7.617C15.9635 7.221 16.184 6.8775 16.466 6.5865C16.748 6.2955 17.084 6.069 17.474 5.907C17.864 5.745 18.29 5.664 18.752 5.664ZM10.499 12H8.969L7.304 9.588H6.899V12H5.612V5.862H7.52C7.952 5.862 8.3165 5.913 8.6135 6.015C8.9105 6.117 9.1505 6.2535 9.3335 6.4245C9.5165 6.5955 9.6485 6.7935 9.7295 7.0185C9.8105 7.2435 9.851 7.482 9.851 7.734C9.851 7.956 9.818 8.1585 9.752 8.3415C9.686 8.5245 9.5975 8.6865 9.4865 8.8275C9.3755 8.9685 9.2435 9.0885 9.0905 9.1875C8.9375 9.2865 8.774 9.36 8.6 9.408L10.499 12ZM8.528 7.788C8.528 7.506 8.447 7.287 8.285 7.131C8.123 6.975 7.889 6.897 7.583 6.897H6.899V8.643H7.592C7.886 8.643 8.1155 8.565 8.2805 8.409C8.4455 8.253 8.528 8.046 8.528 7.788ZM12.272 6.978H14.648V5.862H10.985V12H14.747V10.884H12.272V9.363H14.567V8.301H12.272V6.978Z"/>
    </symbol>
    <symbol viewBox="0 0 22 18" id="s_email">
        <path d="M2.2,0l17.6,0c1.13,0 2.068,0.883 2.187,2.007l-10.987,5.707l-10.977,-5.702c0.116,-1.127 1.046,-2.012 2.177,-2.012Zm-2.191,4.291l-0.009,-0.005l0,-2.286l0.023,0.012c-0.008,0.078 -0.012,0.158 -0.012,0.238l-0.002,2.041Zm21.991,-0.005l-11,5.714l-10.991,-5.709l-0.009,11.459c0,1.237 0.99,2.25 2.2,2.25l17.6,0c1.21,0 2.2,-1.013 2.2,-2.25l0,-11.464Zm0,-2.036l0,-0.25l-0.013,0.007c0.009,0.08 0.013,0.161 0.013,0.243Z"/>
    </symbol>
    <symbol viewBox="0 0 24 19" id="s_email2">
        <path d="M3 0H21C22.6569 0 24 1.34315 24 3V16C24 17.6569 22.6569 19 21 19H3C1.34315 19 0 17.6569 0 16V3C0 1.34315 1.34315 0 3 0ZM2.06855 2.63538L11.9747 10.2066L21.9193 2.6059C21.7664 2.24957 21.4123 2 21 2H3C2.57638 2 2.21427 2.26341 2.06855 2.63538ZM22 5.06152L13.1892 11.7956C12.4722 12.3436 11.4771 12.3436 10.7602 11.7956L2 5.10024V16C2 16.5523 2.44772 17 3 17H21C21.5523 17 22 16.5523 22 16V5.06152Z"/>
    </symbol>
    <symbol viewBox="0 0 20 20" id="s_cursor">
        <path d="M19.9747 0.586585L13.5123 18.8173C13.4577 18.9714 13.3226 19.0821 13.1617 19.1055C12.9976 19.1279 12.8387 19.0616 12.7428 18.9305L9.46119 14.4465L4.03626 19.8711C3.95042 19.9569 3.83779 20 3.72516 20C3.61252 20 3.49989 19.9569 3.41405 19.8711L0.129003 16.586C-0.0430012 16.414 -0.0430012 16.136 0.129003 15.964L5.5536 10.5385L1.06926 7.25732C0.937798 7.16097 0.869947 6.99999 0.893695 6.8385C0.917443 6.67701 1.02838 6.54199 1.1819 6.48788L19.4125 0.0254456C19.5727 -0.0313808 19.7508 0.0086521 19.8705 0.128751C19.991 0.248171 20.0315 0.426453 19.9747 0.586585Z"/>
    </symbol>
    <symbol viewBox="0 0 18 19" id="s_others">
        <path fill-rule="evenodd" d="M3 0C1.34315 0 0 1.34315 0 3V16C0 17.6569 1.34315 19 3 19H15C16.6569 19 18 17.6569 18 16V3C18 1.34315 16.6569 0 15 0H3ZM3 2C2.44772 2 2 2.44772 2 3C2 3.55228 2.44772 4 3 4H15C15.5523 4 16 3.55228 16 3C16 2.44772 15.5523 2 15 2H3Z"/>
    </symbol>
    <symbol viewBox="0 0 18 26" id="s_support" fill-rule="evenodd">
        <path d="M4 0C1.79086 0 0 1.79086 0 4V22C0 24.2091 1.79086 26 4 26H14C16.2091 26 18 24.2091 18 22V4C18 1.79086 16.2091 0 14 0H4ZM12 21H6V23H12V21Z"/>
    </symbol>
    <symbol viewBox="0 0 20 18" id="s_tv" fill-rule="evenodd">
        <path d="M2 0C0.895431 0 0 0.89543 0 2V12C0 13.1046 0.895431 14 2 14H9V16H6.25C5.69772 16 5.25 16.4477 5.25 17C5.25 17.5523 5.69772 18 6.25 18H14.25C14.8023 18 15.25 17.5523 15.25 17C15.25 16.4477 14.8023 16 14.25 16H11V14H18C19.1046 14 20 13.1046 20 12V2C20 0.895431 19.1046 0 18 0H2ZM3 2C2.44772 2 2 2.44772 2 3V11C2 11.5523 2.44772 12 3 12H17C17.5523 12 18 11.5523 18 11V3C18 2.44772 17.5523 2 17 2H3Z"/>
    </symbol>
    <symbol viewBox="0 0 21 18" id="s_tvfill">
        <path d="M0 2C0 0.89543 0.895431 0 2 0H19C20.1046 0 21 0.895431 21 2V12C21 13.1046 20.1046 14 19 14H12V16H14.75C15.3023 16 15.75 16.4477 15.75 17C15.75 17.5523 15.3023 18 14.75 18H6.25C5.69772 18 5.25 17.5523 5.25 17C5.25 16.4477 5.69772 16 6.25 16H9V14H2C0.89543 14 0 13.1046 0 12V2Z"/>
    </symbol>
    <symbol viewBox="0 0 20 18" id="s_video" fill-rule="evenodd">
        <path d="M17.5 0H2.5C1.11929 0 0 1.27245 0 2.84211V15.1579C0 16.7275 1.11929 18 2.5 18H17.5C18.8807 18 20 16.7275 20 15.1579V2.84211C20 1.27245 18.8807 0 17.5 0ZM2 2.84211C2 2.32401 2.28501 2 2.5 2H4V4H2V2.84211ZM2 14V15.1579C2 15.676 2.28501 16 2.5 16H4V14H2ZM2 12H4V10H2V12ZM2 8H4V6H2V8ZM6 16V2H14V16H6ZM16 16H17.5C17.715 16 18 15.676 18 15.1579V14H16V16ZM16 12H18V10H16V12ZM16 8H18V6H16V8ZM16 4H18V2.84211C18 2.32401 17.715 2 17.5 2H16V4Z"/>
    </symbol>
    <symbol viewBox="0 0 82 82" id="s_videobig" fill-rule="evenodd">
        <path d="M37.278,2.19l-35.088,35.088c-3.23,3.23 -2.842,8.855 0.867,12.564l29.101,29.101c3.709,3.709 9.334,4.097 12.564,0.867l35.088,-35.088c3.23,-3.23 2.842,-8.855 -0.867,-12.564l-29.101,-29.101c-3.709,-3.709 -9.334,-4.097 -12.564,-0.867Zm-29.542,42.974c-1.225,-1.225 -1.324,-2.657 -0.821,-3.16l2.887,-2.886l5.642,5.641l-4.056,4.057l-3.652,-3.652Zm25.95,25.95l3.15,3.15c1.225,1.225 2.657,1.324 3.16,0.821l2.886,-2.887l-5.14,-5.141l-4.056,4.057Zm-4.254,-4.254l4.057,-4.056l-4.769,-4.769l-4.057,4.056l4.769,4.769Zm-9.022,-9.022l4.056,-4.056l-4.769,-4.769l-4.056,4.056l4.769,4.769Zm26.726,10.107l-33.081,-33.081l19.306,-19.305l33.08,33.08l-19.305,19.306Zm23.558,-23.559l4.391,-4.39c0.503,-0.503 0.404,-1.935 -0.821,-3.16l-3.15,-3.15l-5.56,5.56l5.14,5.14Zm-9.394,-9.394l5.56,-5.56l-4.769,-4.769l-5.56,5.56l4.769,4.769Zm-9.022,-9.022l5.56,-5.56l-4.769,-4.769l-5.56,5.56l4.769,4.769Zm-9.022,-9.022l5.56,-5.56l-3.652,-3.652c-1.225,-1.225 -2.657,-1.324 -3.16,-0.821l-4.39,4.391l5.642,5.642Z"/>
    </symbol>
    <symbol viewBox="0 0 25 40" id="s_lightning">
        <path d="M24.953,19.583c-0.143,-0.614 -0.586,-1.108 -1.174,-1.307l-8.761,-2.974l6.222,-12.67c0.391,-0.798 0.157,-1.767 -0.553,-2.289c-0.713,-0.52 -1.689,-0.442 -2.307,0.19l-17.857,18.182c-0.437,0.445 -0.617,1.09 -0.476,1.702c0.143,0.615 0.586,1.108 1.174,1.307l8.761,2.974l-6.222,12.671c-0.391,0.797 -0.157,1.766 0.553,2.288c0.711,0.519 1.685,0.443 2.307,-0.19l17.857,-18.181c0.437,-0.446 0.617,-1.09 0.476,-1.703Z"/>
    </symbol>
    <symbol viewBox="0 0 18 18" id="s_fb">
        <path d="M9.61438 18H0.993462C0.444627 18 0 17.5551 0 17.0065V0.993454C0 0.444694 0.444697 0 0.993462 0H17.0066C17.5552 0 18 0.444694 18 0.993454V17.0065C18 17.5552 17.5552 18 17.0066 18H12.4197V11.0294H14.7594L15.1098 8.31284H12.4197V6.57849C12.4197 5.79198 12.6381 5.256 13.766 5.256L15.2045 5.25537V2.82566C14.9557 2.79255 14.1018 2.71859 13.1083 2.71859C11.0343 2.71859 9.61438 3.98457 9.61438 6.30945V8.31284H7.26867V11.0294H9.61438V18Z"/>
    </symbol>
    <symbol viewBox="0 0 18 18" id="s_google">
        <path d="M12.7347 4.82002C12.0714 4.20997 10.9081 3.47998 9.18367 3.47998C6.75512 3.47998 4.69391 5.05 3.94894 7.21999C3.76527 7.77998 3.65307 8.37996 3.65307 9C3.65307 9.61997 3.76527 10.22 3.95914 10.78C4.69391 12.95 6.75512 14.52 9.18367 14.52C10.551 14.52 11.5918 14.15 12.3673 13.62C13.5918 12.78 14.1429 11.53 14.2449 10.7H9.18367V7.36001H17.8061C17.9387 7.92 18 8.46 18 9.19999C18 11.94 17 14.25 15.2653 15.82C13.7448 17.2 11.6632 18 9.18367 18C5.59181 18 2.48976 15.9799 0.979568 13.04C0.357147 11.82 0 10.45 0 9C0 7.55 0.357147 6.17998 0.979568 4.95996C2.48976 2.01998 5.59181 0 9.18367 0C11.6632 0 13.7347 0.890004 15.3265 2.34L12.7347 4.82002Z"/>
    </symbol>
    <symbol viewBox="0 0 18 18" id="s_linkedin">
        <path d="M16.6696875,0 C17.4044531,0 18,0.5776875 18,1.28939063 L18,16.7108203 C18,17.4227344 17.4044531,18 16.6696875,18 L1.3303125,18 C0.595898437,18 0,17.4228047 0,16.7110313 L0,1.28917969 C0,0.5776875 0.595828125,0 1.3303125,0 L16.6696875,0 Z M5.47003125,6.95995313 L2.7765,6.95995313 L2.7765,15.0636094 L5.4703125,15.0636094 L5.47003125,6.95995313 Z M12.0820078,6.76996875 C10.7056073,6.76996875 10.0604786,7.49877943 9.6949492,8.04576193 L9.654,8.107 L9.65446875,6.96023438 L6.96107812,6.96023438 C6.97088917,7.17238844 6.97520786,7.89724316 6.9763356,8.83211748 L6.97624982,10.0882003 C6.9761555,10.1763121 6.97604568,10.2650066 6.97592169,10.3541085 L6.97501841,10.892209 C6.97168709,12.6028036 6.96420262,14.334036 6.96170008,14.8844656 L6.96108607,15.0176331 C6.9609437,15.0480043 6.96086719,15.0638906 6.96086719,15.0638906 L9.65425781,15.0636094 L9.65425781,10.5386484 C9.65425781,10.2967734 9.67183594,10.0542656 9.74299219,9.88150781 C9.93761719,9.39740625 10.3807969,8.89628906 11.1250547,8.89628906 C12.0994453,8.89628906 12.4894687,9.63935156 12.4894687,10.7288438 L12.4894687,15.0636094 L15.1827187,15.0636094 L15.1827187,10.4172188 C15.1827187,7.92822656 13.8540937,6.76996875 12.0820078,6.76996875 Z M4.1416875,3.05353125 C3.21982031,3.05353125 2.61773437,3.65842969 2.61773437,4.45373438 C2.61773437,5.23139063 3.20217187,5.85365625 4.10617969,5.85365625 L4.12361719,5.85365625 C5.06292187,5.85372656 5.64757031,5.23146094 5.64757031,4.45380469 C5.62999219,3.65842969 5.06292187,3.05353125 4.1416875,3.05353125 Z"/>
    </symbol>
    <symbol viewBox="0 0 18 18" id="s_insta" fill-rule="evenodd">
        <path d="M9.00002 0C6.55575 0 6.24926 0.0103604 5.28931 0.0541599C4.33137 0.0978523 3.67712 0.250007 3.10466 0.472506C2.51283 0.702472 2.01092 1.01021 1.51055 1.51055C1.01021 2.01092 0.702472 2.51283 0.472506 3.10466C0.250007 3.67712 0.0978523 4.33137 0.0541599 5.28931C0.0103604 6.24926 0 6.55575 0 9.00002C0 11.4443 0.0103604 11.7507 0.0541599 12.7107C0.0978523 13.6686 0.250007 14.3229 0.472506 14.8953C0.702472 15.4872 1.01021 15.9891 1.51055 16.4895C2.01092 16.9898 2.51283 17.2975 3.10466 17.5275C3.67712 17.75 4.33137 17.9021 5.28931 17.9458C6.24926 17.9896 6.55575 18 9.00002 18C11.4443 18 11.7507 17.9896 12.7107 17.9458C13.6686 17.9021 14.3229 17.75 14.8953 17.5275C15.4872 17.2975 15.9891 16.9898 16.4895 16.4895C16.9898 15.9891 17.2975 15.4872 17.5275 14.8953C17.75 14.3229 17.9021 13.6686 17.9458 12.7107C17.9896 11.7507 18 11.4443 18 9.00002C18 6.55575 17.9896 6.24926 17.9458 5.28931C17.9021 4.33137 17.75 3.67712 17.5275 3.10466C17.2975 2.51283 16.9898 2.01092 16.4895 1.51055C15.9891 1.01021 15.4872 0.702472 14.8953 0.472506C14.3229 0.250007 13.6686 0.0978523 12.7107 0.0541599C11.7507 0.0103604 11.4443 0 9.00002 0ZM9.00002 1.62162C11.4031 1.62162 11.6878 1.6308 12.6368 1.6741C13.5143 1.71411 13.9908 1.86073 14.3079 1.98398C14.728 2.14725 15.0278 2.34227 15.3428 2.65723C15.6577 2.97215 15.8528 3.27196 16.016 3.69206C16.1393 4.00919 16.2859 4.48574 16.3259 5.36323C16.3692 6.31224 16.3784 6.5969 16.3784 9.00002C16.3784 11.4031 16.3692 11.6878 16.3259 12.6368C16.2859 13.5143 16.1393 13.9908 16.016 14.3079C15.8528 14.728 15.6577 15.0278 15.3428 15.3428C15.0278 15.6577 14.728 15.8528 14.3079 16.016C13.9908 16.1393 13.5143 16.2859 12.6368 16.3259C11.6879 16.3692 11.4033 16.3784 9.00002 16.3784C6.59672 16.3784 6.31213 16.3692 5.36323 16.3259C4.48574 16.2859 4.00919 16.1393 3.69206 16.016C3.27196 15.8528 2.97215 15.6577 2.65723 15.3428C2.34231 15.0278 2.14725 14.728 1.98398 14.3079C1.86073 13.9908 1.71411 13.5143 1.6741 12.6368C1.6308 11.6878 1.62162 11.4031 1.62162 9.00002C1.62162 6.5969 1.6308 6.31224 1.6741 5.36323C1.71411 4.48574 1.86073 4.00919 1.98398 3.69206C2.14725 3.27196 2.34227 2.97215 2.65723 2.65723C2.97215 2.34227 3.27196 2.14725 3.69206 1.98398C4.00919 1.86073 4.48574 1.71411 5.36323 1.6741C6.31224 1.6308 6.5969 1.62162 9.00002 1.62162ZM4.37838 9.00002C4.37838 6.44753 6.44753 4.37838 9.00002 4.37838C11.5525 4.37838 13.6216 6.44753 13.6216 9.00002C13.6216 11.5525 11.5525 13.6216 9.00002 13.6216C6.44753 13.6216 4.37838 11.5525 4.37838 9.00002ZM9.00002 12C7.34314 12 6 10.6569 6 9.00002C6 7.34314 7.34314 6 9.00002 6C10.6569 6 12 7.34314 12 9.00002C12 10.6569 10.6569 12 9.00002 12ZM13.8042 5.27577C14.4007 5.27577 14.8842 4.79226 14.8842 4.19579C14.8842 3.59931 14.4007 3.11577 13.8042 3.11577C13.2078 3.11577 12.7242 3.59931 12.7242 4.19579C12.7242 4.79226 13.2078 5.27577 13.8042 5.27577Z"/>
    </symbol>
    <symbol viewBox="0 0 18 18" id="s_social">
        <path d="M9 0C4.02943 0 0 3.73094 0 8.33333C0 10.9558 1.30875 13.2951 3.35404 14.8226V18L6.41845 16.3182C7.23628 16.5445 8.10268 16.6667 9 16.6667C13.9706 16.6667 18 12.9357 18 8.33333C18 3.73094 13.9706 0 9 0ZM9.89441 11.2222L7.60248 8.77778L3.13043 11.2222L8.04969 6L10.3975 8.44444L14.8137 6L9.89441 11.2222Z"/>
    </symbol>
    <symbol viewBox="0 0 82 50" id="s_sdesktop">
        <path d="M69 0H13C10.2386 0 8 2.23858 8 5V43H3C1.34315 43 0 44.3431 0 46V47C0 48.6569 1.34315 50 3 50H79C80.6569 50 82 48.6569 82 47V46C82 44.3431 80.6569 43 79 43H74V5C74 2.23858 71.7614 0 69 0ZM72 43H10V5C10 3.34315 11.3431 2 13 2H69C70.6569 2 72 3.34315 72 5V43ZM8 45H74H79C79.5523 45 80 45.4477 80 46V47C80 47.5523 79.5523 48 79 48H3C2.44772 48 2 47.5523 2 47V46C2 45.4477 2.44772 45 3 45H8ZM40.9922 14C35.4739 14 31 18.4737 31 23.9922C31 29.5106 35.4739 33.9844 40.9922 33.9844C46.5111 33.9844 50.9844 29.5106 50.9844 23.9922C50.9844 18.4737 46.5109 14 40.9922 14ZM39.4533 28.5956L35.7594 24.9019L36.9906 23.6707L39.4533 26.1332L44.9937 20.5926L46.2249 21.8238L39.4533 28.5956Z"/>
    </symbol>
    <symbol viewBox="0 0 60 62" id="s_stablet" fill-rule="evenodd">
        <path d="M5 0H41C43.7614 0 46 2.23858 46 5V22H55C57.7614 22 60 24.2386 60 27V57C60 59.7614 57.7614 62 55 62H43C42.6575 62 42.3231 61.9656 42 61.9C41.6769 61.9656 41.3425 62 41 62H5C2.23858 62 0 59.7614 0 57V5C0 2.23858 2.23858 0 5 0ZM43 60V59.2361C42.7115 59.4944 42.3726 59.6976 42 59.8293C40.8348 59.4175 40 58.3062 40 57V27C40 25.3431 41.3431 24 43 24H55C56.6569 24 58 25.3431 58 27V57C58 58.6569 56.6569 60 55 60H43ZM38.9996 60H5C3.34315 60 2 58.6569 2 57V5C2 3.34315 3.34315 2 5 2H41C42.6569 2 44 3.34315 44 5V22H43C40.2386 22 38 24.2386 38 27V57C38 58.1256 38.3719 59.1643 38.9996 60ZM13 30.9922C13 25.4737 17.4739 21 22.9922 21C28.5109 21 32.9844 25.4737 32.9844 30.9922C32.9844 36.5106 28.5111 40.9844 22.9922 40.9844C17.4739 40.9844 13 36.5106 13 30.9922ZM17.7594 31.9019L21.4533 35.5956L28.2249 28.8238L26.9937 27.5926L21.4533 33.1332L18.9906 30.6707L17.7594 31.9019ZM23 57C23.5523 57 24 56.5523 24 56C24 55.4477 23.5523 55 23 55C22.4477 55 22 55.4477 22 56C22 56.5523 22.4477 57 23 57ZM50 57C50 57.5523 49.5523 58 49 58C48.4477 58 48 57.5523 48 57C48 56.4477 48.4477 56 49 56C49.5523 56 50 56.4477 50 57Z"/>
    </symbol>
    <symbol viewBox="0 0 72 59" id="s_stv" fill-rule="evenodd">
        <path d="M5 0H67C69.7614 0 72 2.23858 72 5V47C72 49.7614 69.7614 52 67 52H37V57H51C51.5523 57 52 57.4477 52 58C52 58.5523 51.5523 59 51 59H36H21C20.4477 59 20 58.5523 20 58C20 57.4477 20.4477 57 21 57H35V52H5C2.23858 52 0 49.7614 0 47V5C0 2.23858 2.23858 0 5 0ZM67 50H36H5C3.34315 50 2 48.6569 2 47V5C2 3.34315 3.34315 2 5 2H67C68.6569 2 70 3.34315 70 5V47C70 48.6569 68.6569 50 67 50ZM35.9922 16C30.4739 16 26 20.4737 26 25.9922C26 31.5106 30.4739 35.9844 35.9922 35.9844C41.5111 35.9844 45.9844 31.5106 45.9844 25.9922C45.9844 20.4737 41.5109 16 35.9922 16ZM34.4533 30.5956L30.7594 26.9019L31.9906 25.6707L34.4533 28.1332L39.9937 22.5926L41.2249 23.8238L34.4533 30.5956Z"/>
    </symbol>
    <symbol viewBox="0 0 26 22" id="s_warning">
        <path d="M25.7712 19.5957L14.3642 0.766844C14.0759 0.290978 13.5583 0 13 0C12.4416 0 11.924 0.290927 11.6357 0.766844L0.228818 19.5957C-0.0678464 20.0854 -0.0766315 20.6962 0.205916 21.1941C0.488463 21.6921 1.01847 22 1.59301 22H24.407C24.9815 22 25.5115 21.692 25.7941 21.1941C26.0766 20.6962 26.0679 20.0854 25.7712 19.5957ZM13.0085 6.51312C13.6636 6.51312 14.218 6.88097 14.218 7.53298C14.218 9.52252 13.9828 12.3816 13.9828 14.3711C13.9828 14.8894 13.4116 15.1067 13.0085 15.1067C12.471 15.1067 12.0174 14.8894 12.0174 14.3711C12.0174 12.3816 11.7823 9.52252 11.7823 7.53298C11.7823 6.88097 12.3198 6.51312 13.0085 6.51312ZM13.0253 18.8351C12.2862 18.8351 11.7319 18.2333 11.7319 17.5478C11.7319 16.8456 12.2862 16.2605 13.0253 16.2605C13.714 16.2605 14.3019 16.8456 14.3019 17.5478C14.3019 18.2333 13.714 18.8351 13.0253 18.8351Z"/>
    </symbol>
    <symbol viewBox="0 0 20 20" id="s_filter" fill-rule="evenodd">
        <path d="M3 20C3.55228 20 4 19.5523 4 19V16.8293C5.16519 16.4175 6 15.3062 6 14C6 12.6938 5.16519 11.5825 4 11.1707V1C4 0.447716 3.55228 0 3 0C2.44772 0 2 0.447716 2 1V11.1707C0.834808 11.5825 0 12.6938 0 14C0 15.3062 0.834808 16.4175 2 16.8293V19C2 19.5523 2.44772 20 3 20ZM3 13C2.44772 13 2 13.4477 2 14C2 14.5523 2.44772 15 3 15C3.55228 15 4 14.5523 4 14C4 13.4477 3.55228 13 3 13ZM9 1C9 0.447715 9.44772 0 10 0C10.5523 0 11 0.447715 11 1V3.17071C12.1652 3.58254 13 4.69378 13 6C13 7.30622 12.1652 8.41746 11 8.82929V19C11 19.5523 10.5523 20 10 20C9.44772 20 9 19.5523 9 19V8.82929C7.83481 8.41746 7 7.30622 7 6C7 4.69378 7.83481 3.58254 9 3.17071V1ZM11 6C11 6.55228 10.5523 7 10 7C9.44772 7 9 6.55228 9 6C9 5.44772 9.44772 5 10 5C10.5523 5 11 5.44772 11 6ZM18 19C18 19.5523 17.5523 20 17 20C16.4477 20 16 19.5523 16 19V16.8293C14.8348 16.4175 14 15.3062 14 14C14 12.6938 14.8348 11.5825 16 11.1707V1C16 0.447716 16.4477 0 17 0C17.5523 0 18 0.447716 18 1V11.1707C19.1652 11.5825 20 12.6938 20 14C20 15.3062 19.1652 16.4175 18 16.8293V19ZM16 14C16 13.4477 16.4477 13 17 13C17.5523 13 18 13.4477 18 14C18 14.5523 17.5523 15 17 15C16.4477 15 16 14.5523 16 14Z"/>
    </symbol>
    <symbol viewBox="0 0 34 45" id="s_file_pdf">
        <path d="M32.486,45l-30.882,0c-0.902,0 -1.604,-0.7 -1.604,-1.3l0,-41.7c0,-1.4 0.802,-2 1.604,-2l22.36,0c0.301,0 0.601,0.1 0.802,0.4l8.924,9.1c0.3,0.3 0.3,0.7 0.3,1.2l0,33c0.101,0.6 -0.601,1.3 -1.504,1.3Zm-30.882,-44c-0.601,0 -0.601,0.8 -0.601,1l0,41.7c0,0 0.3,0.3 0.601,0.3l30.882,0c0.301,0 0.602,-0.3 0.602,-0.3l0,-33l0,-0.5l-8.924,-9.1l-0.1,-0.1l-22.46,0Z" fill="#ebebeb" fill-rule="nonzero"/>
        <path d="M32.486,44.5l-30.882,0c-0.601,0 -1.103,-0.5 -1.103,-1.1l0,-11.9l33.088,0l0,11.9c0,0.6 -0.501,1.1 -1.103,1.1Z" fill="#dc7e7f" fill-rule="nonzero"/>
        <path d="M8.523,41.5l0,-7l3.108,0c1.404,0 2.206,1 2.206,2.3c0,1.2 -0.802,2.2 -2.206,2.2l-1.705,0l0,2.5l-1.403,0Zm3.91,-4.8c0,-0.6 -0.401,-1 -1.003,-1l-1.504,0l0,1.9l1.504,0c0.602,0.1 1.003,-0.3 1.003,-0.9Zm2.306,4.8l0,-7l2.607,0c2.106,0 3.509,1.4 3.509,3.5c0,2.1 -1.403,3.5 -3.509,3.5l-2.607,0Zm1.404,-1.3l1.203,0c1.304,0 2.106,-1 2.106,-2.2c0,-1.2 -0.702,-2.2 -2.106,-2.2l-1.203,0l0,4.4Zm5.715,1.3l0,-7l4.713,0l0,1.3l-3.309,0l0,1.5l3.208,0l0,1.3l-3.208,0l0,2.9l-1.404,0Z" fill="#fff" fill-rule="nonzero"/>
        <path d="M10.929,25.5c-0.2,0 -0.401,-0.1 -0.602,-0.2c-0.701,-0.5 -0.802,-1.1 -0.701,-1.5c0.1,-1.1 1.403,-2.3 3.91,-3.5c1.003,-2.2 1.905,-5 2.507,-7.3c-0.602,-1.5 -1.304,-3.4 -0.802,-4.5c0.2,-0.4 0.401,-0.7 0.701,-0.8c0,-0.1 0.401,-0.2 0.502,-0.2c0.301,0 0.601,0.4 0.802,0.7c0.2,0.3 0.601,0.8 -0.201,4.6c0.903,1.9 2.106,3.8 3.309,5.1c0.903,-0.2 1.604,-0.2 2.206,-0.2c1.003,0 1.604,0.2 1.905,0.8c0.201,0.4 0.1,0.9 -0.301,1.5c-0.401,0.5 -0.902,0.8 -1.403,0.8c-0.803,0 -1.705,-0.5 -2.708,-1.6c-1.804,0.4 -4.01,1.1 -5.715,1.9c-0.501,1.2 -1.103,2.2 -1.504,2.9c-0.802,1 -1.404,1.5 -1.905,1.5Zm1.604,-3c-1.403,0.7 -2.005,1.3 -2.005,1.6c0,0.1 0,0.2 0.301,0.4c0.1,0 0.601,-0.3 1.704,-2Zm9.024,-3.8c0.502,0.5 0.702,0.8 1.003,0.8c0.201,0 0.602,0 0.802,-0.4c0.1,-0.2 0.1,-0.3 0.201,-0.3c-0.101,-0.1 -0.201,-0.2 -0.802,-0.2c-0.301,0 -0.702,0 -1.204,0.1Zm-4.411,-4.2c-0.401,1.6 -1.003,3.4 -1.605,5c1.304,-0.5 2.708,-1 4.011,-1.3c-0.802,-1.1 -1.705,-2.4 -2.406,-3.7Zm-1.103,-6c-0.101,0 -1.103,1.1 0.1,2c0.802,-1.3 0,-2 -0.1,-2Z" fill="#dd5859" fill-rule="nonzero"/>
    </symbol>
    <symbol viewBox="0 0 18 18" id="s_fa_cloud">
        <path d="M15.777,8.262c0.052,-0.291 0.078,-0.588 0.078,-0.887c0,-2.688 -2.129,-4.875 -4.746,-4.875c-1.67,0 -3.219,0.914 -4.07,2.367c-1.148,-0.383 -2.326,-0.219 -3.297,0.468c-0.971,0.687 -1.55,1.774 -1.597,2.963c-1.276,0.622 -2.145,1.948 -2.145,3.41c0,0.254 0.06,0.502 0.106,0.742l0,0c0.341,1.768 1.864,3.05 3.621,3.05l10.546,0c2.036,0 3.727,-1.701 3.727,-3.792c0,-1.478 -0.881,-2.809 -2.223,-3.446Z"/>
    </symbol>
    <symbol viewBox="0 0 18 18" id="s_fa_clouddown" fill-rule="evenodd">
        <path d="M15.855,7.375c0,0.299 -0.026,0.596 -0.078,0.887c1.342,0.637 2.223,1.968 2.223,3.446c0,2.091 -1.691,3.792 -3.727,3.792l-10.546,0c-1.757,0 -3.28,-1.282 -3.621,-3.05l-0,-0c-0.008,-0.041 -0.016,-0.082 -0.025,-0.124c-0.04,-0.201 -0.081,-0.407 -0.081,-0.618c-0,-1.462 0.869,-2.788 2.145,-3.41c0.047,-1.189 0.626,-2.276 1.597,-2.963c0.971,-0.687 2.149,-0.851 3.297,-0.468c0.851,-1.453 2.4,-2.367 4.07,-2.367c2.617,0 4.746,2.187 4.746,4.875Zm-4,2.315c0.058,0 0.11,0.036 0.132,0.091c0.022,0.055 0.01,0.118 -0.031,0.16l-2.858,2.937c-0.027,0.027 -0.063,0.043 -0.101,0.043c-0.038,-0 -0.074,-0.016 -0.101,-0.043l-2.85,-2.938c-0.041,-0.041 -0.053,-0.105 -0.031,-0.159c0.022,-0.055 0.074,-0.091 0.132,-0.091l1.571,0l0,-1.907c0,-0.081 0.064,-0.147 0.143,-0.147l2.286,-0c0.079,-0 0.143,0.066 0.143,0.147l-0,1.907l1.565,0Z"/>
    </symbol>
    <symbol viewBox="0 0 18 18" id="s_fa_cloudup">
        <path d="M15.855,7.375c0,0.299 -0.026,0.596 -0.078,0.887c1.342,0.637 2.223,1.968 2.223,3.446c0,2.091 -1.691,3.792 -3.727,3.792l-10.546,0c-1.757,0 -3.28,-1.282 -3.621,-3.05l-0,-0c-0.008,-0.041 -0.016,-0.082 -0.025,-0.124c-0.04,-0.201 -0.081,-0.407 -0.081,-0.618c-0,-1.462 0.869,-2.788 2.145,-3.41c0.047,-1.189 0.626,-2.276 1.597,-2.963c0.971,-0.687 2.149,-0.851 3.297,-0.468c0.851,-1.453 2.4,-2.367 4.07,-2.367c2.617,0 4.746,2.187 4.746,4.875Zm-4,3.491c0.058,0 0.11,-0.035 0.132,-0.09c0.022,-0.055 0.01,-0.118 -0.031,-0.16l-2.858,-2.937c-0.027,-0.028 -0.063,-0.043 -0.101,-0.043c-0.038,-0 -0.074,0.015 -0.101,0.043l-2.85,2.937c-0.041,0.042 -0.053,0.105 -0.031,0.16c0.022,0.055 0.074,0.09 0.132,0.09l1.571,0l0,1.908c0,0.081 0.064,0.147 0.143,0.147l2.286,-0c0.079,-0 0.143,-0.066 0.143,-0.147l-0,-1.908l1.565,0Z"/>
    </symbol>
    <symbol viewBox="0 0 18 18" id="s_fa_cogs">
        <path d="M6.12079 4.45415C6.13658 4.4097 6.18937 4.37223 6.21424 4.37223H6.54121C6.84815 4.37223 7.0979 4.12256 7.0979 3.81552V3.28202C7.0979 2.97502 6.84815 2.72532 6.54121 2.72532H6.21433C6.18946 2.72532 6.13668 2.68784 6.12091 2.64339C6.08807 2.55088 6.04956 2.45876 6.00642 2.36977C5.98628 2.32811 5.99696 2.26528 6.01439 2.24785L6.24683 2.01543C6.46384 1.7983 6.46384 1.44518 6.24683 1.22817L5.86967 0.851001C5.76455 0.745876 5.62471 0.687993 5.47602 0.687993C5.32729 0.687993 5.18745 0.745998 5.08233 0.851092L4.85002 1.08344C4.84277 1.09069 4.81791 1.10227 4.78219 1.10227C4.76187 1.10227 4.74219 1.09839 4.7281 1.09151C4.63895 1.04836 4.5469 1.00985 4.45448 0.977107C4.40994 0.96134 4.37246 0.908429 4.37246 0.883657V0.556701C4.37246 0.249666 4.12271 0 3.81577 0H3.28228C2.97534 0 2.72559 0.249666 2.72559 0.556701V0.883657C2.72559 0.90852 2.68812 0.961219 2.64367 0.977016C2.55079 1.00995 2.45865 1.04854 2.36987 1.09151C2.35586 1.09827 2.33609 1.10218 2.31578 1.10218C2.28006 1.10218 2.25529 1.09069 2.24807 1.08344L2.01563 0.851092C1.91051 0.745967 1.7707 0.688084 1.62198 0.688084C1.47325 0.688084 1.33351 0.745967 1.22841 0.851092L0.851194 1.22826C0.634189 1.44539 0.634189 1.79861 0.851194 2.01562L1.08351 2.24794C1.10095 2.26537 1.11171 2.3282 1.09158 2.36977C1.04843 2.45885 1.00992 2.55097 0.977086 2.64348C0.961319 2.68793 0.908409 2.7255 0.883637 2.7255H0.556689C0.249782 2.7255 0 2.97517 0 3.2822V3.81571C0 4.12265 0.249691 4.37241 0.556598 4.37241H0.883577C0.90844 4.37241 0.961228 4.40988 0.977025 4.45434C1.00986 4.54694 1.04837 4.63896 1.09152 4.72796C1.11165 4.76962 1.10098 4.83241 1.08354 4.84988L0.851103 5.08232C0.745981 5.18745 0.688099 5.32729 0.688099 5.47599C0.688099 5.62471 0.745981 5.76446 0.851194 5.86968L1.22835 6.24676C1.33348 6.35188 1.47328 6.40976 1.62201 6.40976C1.77073 6.40976 1.91048 6.35188 2.01557 6.24676L2.24801 6.01434C2.25523 6.00709 2.28012 5.99551 2.31584 5.99551C2.33615 5.99551 2.35583 5.99939 2.36993 6.00625C2.4591 6.04939 2.55116 6.0879 2.64354 6.12065C2.68809 6.13642 2.72556 6.1893 2.72556 6.21407V6.54106C2.72556 6.84806 2.97534 7.09776 3.28225 7.09776H3.81574C4.12268 7.09776 4.37243 6.84809 4.37243 6.54106V6.21416C4.37243 6.1893 4.40991 6.1366 4.45436 6.12083C4.54687 6.08799 4.63889 6.04948 4.72797 6.00634C4.74207 5.99945 4.76184 5.99557 4.78216 5.99557C4.81788 5.99557 4.84265 6.00716 4.84998 6.0144L5.08242 6.24682C5.18755 6.35194 5.32735 6.40982 5.47608 6.40982C5.6248 6.40982 5.76455 6.35194 5.86964 6.24682L6.2468 5.86968C6.46381 5.65255 6.46381 5.29942 6.2468 5.08241L6.01448 4.85009C5.99702 4.83266 5.98625 4.76974 6.00639 4.72817C6.04956 4.6386 6.08804 4.54657 6.12079 4.45415ZM4.63334 3.54876C4.63334 4.14666 4.14691 4.6332 3.54901 4.6332C2.95103 4.6332 2.46459 4.14676 2.46459 3.54876C2.46459 2.95076 2.95103 2.46431 3.54901 2.46431C4.14688 2.46431 4.63334 2.95079 4.63334 3.54876ZM17.1647 9.81164H16.5119C16.3352 9.81164 16.1292 9.65179 16.0621 9.46249C15.9998 9.28705 15.9267 9.11243 15.845 8.94336C15.7579 8.76355 15.79 8.50619 15.9149 8.38129L16.3796 7.91652C16.7052 7.59096 16.7052 7.06116 16.3796 6.73557L15.6253 5.98126C15.4675 5.82353 15.2579 5.73669 15.0348 5.73669C14.8118 5.73669 14.6021 5.82353 14.4443 5.98126L13.9796 6.44603C13.905 6.52062 13.7807 6.56516 13.6474 6.56516C13.5639 6.56516 13.4844 6.54809 13.4177 6.5158C13.2486 6.43396 13.0737 6.36076 12.8979 6.29821C12.7087 6.23105 12.5488 6.02508 12.5488 5.84848V5.19557C12.5488 4.73517 12.1742 4.36052 11.7138 4.36052H10.6468C10.1863 4.36052 9.81173 4.73517 9.81173 5.19557V5.84848C9.81173 6.02514 9.65191 6.23114 9.46268 6.29821C9.28709 6.36058 9.11226 6.4336 8.94332 6.51525C8.87773 6.54697 8.79635 6.56443 8.71415 6.56443C8.58026 6.56443 8.45567 6.5198 8.38087 6.44503L7.91687 5.9812C7.75914 5.82347 7.54944 5.73663 7.32631 5.73663C7.10327 5.73663 6.89357 5.82347 6.73584 5.98111L5.9808 6.73572C5.82298 6.89336 5.73614 7.10303 5.73605 7.32611C5.73605 7.54915 5.82289 7.75885 5.98062 7.91659L6.44537 8.38135C6.57035 8.50634 6.60246 8.76389 6.51544 8.94381C6.43388 9.11258 6.36087 9.28711 6.29862 9.46264C6.23146 9.65182 6.02558 9.8117 5.8489 9.8117H5.1961C4.73562 9.8117 4.36106 10.1864 4.36106 10.6468V11.7138C4.36106 12.1742 4.73562 12.5488 5.1961 12.5488H5.8489C6.02558 12.5488 6.23155 12.7086 6.29871 12.8978C6.36087 13.0728 6.43388 13.2475 6.51572 13.4166C6.60268 13.5964 6.57047 13.854 6.4454 13.9791L5.98065 14.4438C5.65509 14.7694 5.65509 15.2992 5.98065 15.6247L6.736 16.3802C6.89372 16.5379 7.10342 16.6248 7.32646 16.6248C7.5495 16.6248 7.7592 16.5379 7.91693 16.3802L8.38168 15.9155C8.45646 15.8407 8.58098 15.7961 8.71476 15.7961C8.79817 15.7961 8.8774 15.813 8.94392 15.8452C9.11299 15.927 9.28755 16 9.46286 16.0622C9.652 16.1294 9.81191 16.3354 9.81191 16.5121V17.165C9.81191 17.6254 10.1865 18 10.6469 18H11.7139C12.1744 18 12.5489 17.6254 12.5489 17.165V16.5121C12.5489 16.3354 12.7088 16.1294 12.898 16.0623C13.0736 16 13.2485 15.927 13.4174 15.8453C13.483 15.8136 13.5643 15.7961 13.6465 15.7961C13.7804 15.7961 13.905 15.8408 13.9798 15.9156L14.4445 16.3803C14.6022 16.538 14.8118 16.6249 15.0348 16.6249C15.258 16.6249 15.4677 16.5379 15.6254 16.3801L16.3801 15.625C16.7054 15.2994 16.7054 14.7696 16.3799 14.444L15.9156 13.9794C15.7907 13.8546 15.7587 13.597 15.8456 13.4171C15.9272 13.2482 16.0002 13.0735 16.0625 12.898C16.1296 12.7088 16.3355 12.549 16.5122 12.549H17.1649C17.6254 12.549 18 12.1743 18 11.7139V10.6469C17.9997 10.1862 17.6251 9.81164 17.1647 9.81164ZM13.6274 11.1802C13.6274 12.5296 12.5296 13.6274 11.1802 13.6274C9.83096 13.6274 8.73313 12.5296 8.73313 11.1802C8.73313 9.83087 9.83096 8.73305 11.1802 8.73305C12.5296 8.73305 13.6274 9.83078 13.6274 11.1802Z"/>
    </symbol>
    <symbol viewBox="0 0 18 18" id="s_fa_cubs">
        <path d="M9.23586 0.0556611C9.08736 -0.0185537 8.91264 -0.0185537 8.76414 0.0556611L4.93052 2.03471L9 4.3603L13.0695 2.03468L9.23586 0.0556611ZM9.67662 10.5074L13.7461 8.47266L17.8507 10.5074L13.7461 12.8329L9.67662 10.5074ZM0 11.6367V15.5846C0 15.7738 0.101391 15.9486 0.265746 16.0424L3.72656 18V13.7461L0 11.6367ZM4.78125 13.7461V18L8.47266 15.8906V11.6367L4.78125 13.7461ZM9.52734 15.8906V11.6367L13.2188 13.7461V18L9.52734 15.8906ZM14.2734 13.7461V18L17.7343 16.0424C17.8986 15.9486 18 15.7739 18 15.5846V11.6367L14.2734 13.7461ZM4.78125 7.55702V3.16407L8.47266 5.27344V9.40272L4.78125 7.55702ZM4.25391 8.47266L0.149273 10.5074L4.25391 12.8329L8.32338 10.5074L4.25391 8.47266ZM9.52734 9.40272V5.27344L13.2188 3.16407V7.55702L9.52734 9.40272Z"/>
    </symbol>
    <symbol viewBox="0 0 18 18" id="s_fa_enve">
        <path d="M9,8l6.64,-5l-13.28,0l6.64,5Zm8,6.141l0,-10.141l-7.6,5.672l-0.097,0.056c-0.24,0.113 -0.573,0.094 -0.783,-0.056l-7.52,-5.672l0,10.141l0.007,0.099c0.055,0.394 0.424,0.76 0.793,0.76l14.4,-0l0.092,-0.007c0.367,-0.059 0.708,-0.456 0.708,-0.852Z"/>
    </symbol>
    <symbol viewBox="0 0 18 18" id="s_fa_exclamation" fill-rule="evenodd">
        <path d="M9,1c-4.4,0 -8,3.6 -8,8c0,4.4 3.6,8 8,8c4.4,0 8,-3.6 8,-8c0,-4.4 -3.6,-8 -8,-8Zm-0.8,12l0,-1.6l1.6,0l0,1.6l-1.6,0Zm0,-8l0,4.8l1.6,0l0,-4.8l-1.6,-0Z"/>
    </symbol>
    <symbol viewBox="0 0 18 18" id="s_fa_exchange">
        <path d="M15,3.038c-0.048,-0.025 -0.095,-0.038 -0.143,-0.038c-0.083,-0 -0.152,0.026 -0.205,0.077c-0.054,0.051 -0.08,0.116 -0.08,0.196l-0,1.636l-12.286,0l-0.073,0.009c-0.047,0.012 -0.09,0.036 -0.127,0.072c-0.057,0.054 -0.085,0.118 -0.085,0.192l-0,1.636l0.009,0.071c0.013,0.044 0.038,0.085 0.076,0.121c0.056,0.054 0.123,0.081 0.2,0.081l12.286,-0l-0,1.636l0.009,0.071c0.013,0.045 0.038,0.085 0.075,0.121c0.057,0.054 0.124,0.081 0.201,0.081c0.084,-0 0.152,-0.026 0.206,-0.077l2.857,-2.727l0.044,-0.056c0.024,-0.04 0.036,-0.087 0.036,-0.14c0,-0.08 -0.027,-0.145 -0.08,-0.196l-2.848,-2.719l-0.072,-0.047Zm-11.652,6.039c-0.053,-0.051 -0.122,-0.077 -0.205,-0.077c-0.072,-0 -0.143,0.028 -0.215,0.085l-2.848,2.719c-0.053,0.051 -0.08,0.116 -0.08,0.196c-0,0.08 0.027,0.145 0.08,0.196l2.857,2.727c0.054,0.051 0.122,0.077 0.206,0.077c0.077,-0 0.144,-0.027 0.201,-0.081c0.056,-0.054 0.084,-0.118 0.084,-0.192l0,-1.636l12.286,-0c0.077,-0 0.144,-0.027 0.2,-0.081c0.057,-0.054 0.085,-0.118 0.085,-0.192l0,-1.636c0,-0.074 -0.028,-0.138 -0.085,-0.192c-0.056,-0.054 -0.123,-0.081 -0.2,-0.081l-12.286,0l0,-1.636c0,-0.08 -0.026,-0.145 -0.08,-0.196Z"/>
    </symbol>
    <symbol viewBox="0 0 18 18" id="s_fa_eye">
        <path d="M9,3.5c-3.439,0 -6.558,1.929 -8.859,5.062c-0.188,0.257 -0.188,0.615 -0,0.872c2.301,3.137 5.42,5.066 8.859,5.066c3.439,0 6.558,-1.929 8.859,-5.062c0.188,-0.257 0.188,-0.615 0,-0.872c-2.301,-3.137 -5.42,-5.066 -8.859,-5.066Zm0.247,9.373c-2.283,0.147 -4.168,-1.782 -4.025,-4.126c0.118,-1.933 1.646,-3.499 3.531,-3.62c2.283,-0.147 4.168,1.782 4.025,4.126c-0.122,1.929 -1.65,3.495 -3.531,3.62Zm-2.28,-4.009c-0.081,1.261 0.936,2.299 2.166,2.22c1.012,-0.064 1.837,-0.906 1.903,-1.952c0.081,-1.261 -0.935,-2.299 -2.165,-2.22c-1.016,0.068 -1.841,0.91 -1.904,1.952Z"/>
    </symbol>
    <symbol viewBox="0 0 18 18" id="s_fa_globe" fill-rule="evenodd">
        <path d="M9,1c-4.42,0 -8,3.58 -8,8c0,4.42 3.58,8 8,8c4.42,0 8,-3.58 8,-8c0,-4.42 -3.58,-8 -8,-8Zm-0.8,14.344c-3.156,-0.392 -5.6,-3.08 -5.6,-6.344c0,-0.492 0.06,-0.972 0.168,-1.432l3.832,3.832l0,0.8c0,0.884 0.716,1.6 1.6,1.6l0,1.544l-0,-0Zm4,-3.144c0.712,-0 1.312,0.468 1.516,1.116c1.044,-1.14 1.684,-2.652 1.684,-4.316c0,-2.688 -1.656,-4.984 -4,-5.932l0,0.332c0,0.884 -0.716,1.6 -1.6,1.6l-1.6,0l-0,1.6c-0,0.44 -0.36,0.8 -0.8,0.8l-1.6,0l0,1.6l4.8,0c0.44,0 0.8,0.36 0.8,0.8l0,2.4l0.8,-0Z"/>
    </symbol>
    <symbol viewBox="0 0 18 18" id="s_fa_graph">
        <path d="M14,1.5c-0.552,0 -1,0.448 -1,1l0,13c0,0.552 0.448,1 1,1l2,0c0.552,0 1,-0.448 1,-1l0,-13c0,-0.552 -0.448,-1 -1,-1l-2,0Zm-7,5c0,-0.552 0.448,-1 1,-1l2,0c0.552,0 1,0.448 1,1l0,8.909c0,0.552 -0.448,1 -1,1l-2,0c-0.552,0 -1,-0.448 -1,-1l0,-8.909Zm-6,4.864c0,-0.553 0.448,-1 1,-1l2,-0c0.552,-0 1,0.447 1,1l0,4.136c0,0.552 -0.448,1 -1,1l-2,0c-0.552,0 -1,-0.448 -1,-1l0,-4.136Z"/>
    </symbol>
    <symbol viewBox="0 0 18 18" id="s_fa_link">
        <path d="M8.1,4.5l-0,1.71l-3.6,-0c-1.539,-0 -2.79,1.251 -2.79,2.79c-0,1.477 1.153,2.689 2.607,2.784l0.183,0.006l3.6,0l-0,1.71l-3.6,0c-2.484,0 -4.5,-2.016 -4.5,-4.5c0,-2.409 1.896,-4.377 4.276,-4.494l0.224,-0.006l3.6,0Zm5.4,0c2.484,0 4.5,2.016 4.5,4.5c0,2.409 -1.896,4.377 -4.275,4.494l-0.225,0.006l-3.6,0l0,-1.71l3.6,0c1.539,0 2.79,-1.251 2.79,-2.79c0,-1.477 -1.153,-2.689 -2.607,-2.784l-0.183,-0.006l-3.6,-0l0,-1.71l3.6,0Zm-0.9,5.4l0,-1.8l-7.2,-0l0,1.8l7.2,0Z"/>
    </symbol>
    <symbol viewBox="0 0 18 18" id="s_fa_lock">
        <path d="M14.833,8.124c0.324,0 0.599,0.104 0.826,0.312c0.227,0.208 0.341,0.46 0.341,0.757l0,6.738c0,0.297 -0.114,0.55 -0.34,0.757c-0.227,0.208 -0.502,0.312 -0.827,0.312l-11.666,-0c-0.324,-0 -0.6,-0.104 -0.827,-0.312c-0.227,-0.207 -0.34,-0.46 -0.34,-0.757l-0,-6.738c-0,-0.297 0.113,-0.549 0.34,-0.757c0.227,-0.208 0.503,-0.312 0.827,-0.312l0.388,0l0,-2.137c0,-1.366 0.535,-2.538 1.605,-3.518c1.069,-0.979 2.349,-1.469 3.84,-1.469c1.491,-0 2.771,0.49 3.84,1.469c1.07,0.98 1.604,2.152 1.604,3.518l0,2.137l0.389,0Zm-8.833,-0.267l6,0l-0,-2.099c-0,-0.773 -0.293,-1.432 -0.879,-1.979c-0.586,-0.547 -1.293,-0.82 -2.121,-0.82c-0.828,0 -1.535,0.273 -2.121,0.82c-0.586,0.547 -0.879,1.206 -0.879,1.979l-0,2.099Z"/>
    </symbol>
    <symbol viewBox="0 0 18 18" id="s_fa_plus">
        <path d="M9.5,3c0.276,0 0.5,0.224 0.5,0.5l0,4.499l4.5,0.001c0.276,0 0.5,0.224 0.5,0.5l0,1c0,0.276 -0.224,0.5 -0.5,0.5l-4.5,-0.001l0,4.501c0,0.276 -0.224,0.5 -0.5,0.5l-1,0c-0.276,0 -0.5,-0.224 -0.5,-0.5l0,-4.501l-4.5,0.001c-0.276,0 -0.5,-0.224 -0.5,-0.5l0,-1c0,-0.276 0.224,-0.5 0.5,-0.5l4.5,-0.001l0,-4.499c0,-0.276 0.224,-0.5 0.5,-0.5l1,0Z"/>
    </symbol>
    <symbol viewBox="0 0 18 18" id="s_fa_minus">
        <path d="M3.5,8l11,0c0.276,0 0.5,0.224 0.5,0.5l0,1c0,0.276 -0.224,0.5 -0.5,0.5l-11,-0c-0.276,-0 -0.5,-0.224 -0.5,-0.5l0,-1c0,-0.276 0.224,-0.5 0.5,-0.5Z"/>
    </symbol>
    <symbol viewBox="0 0 18 18" id="s_fa_pencil">
        <path d="M16.194,3.264l-1.361,-1.368c-0.526,-0.528 -1.38,-0.528 -1.907,0l-1.304,1.31l3.052,3.066l1.52,-1.527c0.408,-0.41 0.408,-1.071 0,-1.481Zm-5.367,0.739l3.052,3.067l-7.724,7.761l-3.05,-3.066l7.722,-7.762Zm-8.898,12.487c-0.25,0.061 -0.476,-0.164 -0.421,-0.415l0.771,-3.48l3.05,3.066l-3.4,0.829Z"/>
    </symbol>
    <symbol viewBox="0 0 18 18" id="s_fa_print" fill-rule="evenodd">
        <path d="M5,4.5c0,-1.105 0.895,-2 2,-2l4,0c1.105,0 2,0.895 2,2l2.5,0c0.828,0 1.5,0.672 1.5,1.5l0,5c0,0.828 -0.672,1.5 -1.5,1.5l-1.5,0l0,1.5c0,0.828 -0.672,1.5 -1.5,1.5l-7,0c-0.828,0 -1.5,-0.672 -1.5,-1.5l0,-1.5l-1.5,0c-0.828,0 -1.5,-0.672 -1.5,-1.5l0,-5c0,-0.828 0.672,-1.5 1.5,-1.5l2.5,0Zm0,3c0,0.552 -0.448,1 -1,1c-0.552,0 -1,-0.448 -1,-1c0,-0.552 0.448,-1 1,-1c0.552,0 1,0.448 1,1Zm1.5,3c-0.276,0 -0.5,0.224 -0.5,0.5l0,2c0,0.276 0.224,0.5 0.5,0.5l5,0c0.276,0 0.5,-0.224 0.5,-0.5l0,-2c0,-0.276 -0.224,-0.5 -0.5,-0.5l-5,0Z"/>
    </symbol>
    <symbol viewBox="0 0 18 18" id="s_fa_random">
        <path d="M8.34,9.438c0.273,-0.636 0.505,-1.135 0.696,-1.497c0.143,-0.268 0.277,-0.494 0.402,-0.678c0.125,-0.184 0.276,-0.363 0.455,-0.538c0.179,-0.175 0.384,-0.306 0.616,-0.394c0.232,-0.087 0.491,-0.131 0.777,-0.131l2.286,0l-0,1.68c-0,0.076 0.028,0.142 0.084,0.197c0.057,0.055 0.124,0.083 0.201,0.083c0.084,0 0.152,-0.026 0.205,-0.079l2.858,-2.8c0.053,-0.052 0.08,-0.119 0.08,-0.201c0,-0.082 -0.027,-0.149 -0.08,-0.201l-2.849,-2.792c-0.071,-0.058 -0.143,-0.087 -0.214,-0.087c-0.083,0 -0.152,0.026 -0.205,0.079c-0.054,0.052 -0.08,0.119 -0.08,0.201l-0,1.68l-2.286,-0c-0.405,-0 -0.786,0.048 -1.143,0.144c-0.357,0.097 -0.674,0.219 -0.951,0.368c-0.277,0.149 -0.545,0.348 -0.804,0.599c-0.259,0.251 -0.479,0.493 -0.66,0.727c-0.182,0.233 -0.372,0.524 -0.572,0.875c-0.199,0.35 -0.36,0.656 -0.482,0.918c-0.122,0.263 -0.269,0.587 -0.442,0.972c-0.274,0.635 -0.506,1.134 -0.696,1.496c-0.143,0.268 -0.277,0.494 -0.402,0.678c-0.125,0.184 -0.277,0.363 -0.455,0.538c-0.179,0.175 -0.384,0.307 -0.616,0.394c-0.233,0.088 -0.492,0.131 -0.777,0.131l-2,0c-0.084,0 -0.152,0.026 -0.206,0.079c-0.053,0.052 -0.08,0.119 -0.08,0.201l0,1.68c0,0.082 0.027,0.149 0.081,0.202c0.053,0.052 0.122,0.078 0.205,0.078l2,0c0.405,0 0.786,-0.048 1.143,-0.144c0.357,-0.097 0.674,-0.219 0.951,-0.368c0.277,-0.149 0.545,-0.348 0.803,-0.599c0.259,-0.251 0.48,-0.493 0.661,-0.726c0.182,-0.234 0.372,-0.525 0.572,-0.875c0.199,-0.35 0.36,-0.657 0.482,-0.919c0.122,-0.263 0.269,-0.586 0.442,-0.971Zm-7.054,-3.238l2,-0c0.262,-0 0.504,0.042 0.727,0.127c0.224,0.085 0.411,0.187 0.563,0.306c0.152,0.12 0.303,0.285 0.455,0.495c0.152,0.21 0.273,0.395 0.362,0.555c0.089,0.161 0.199,0.372 0.33,0.635c0.459,-1.056 0.866,-1.852 1.223,-2.389c-0.952,-1.313 -2.172,-1.969 -3.66,-1.969l-2,0c-0.084,0 -0.152,0.026 -0.206,0.079c-0.053,0.052 -0.08,0.119 -0.08,0.201l0,1.68c0,0.082 0.027,0.149 0.08,0.201c0.054,0.053 0.122,0.079 0.206,0.079Zm12.571,3.641c0.072,-0 0.143,0.029 0.215,0.087l2.848,2.791c0.053,0.052 0.08,0.119 0.08,0.201c0,0.082 -0.027,0.149 -0.08,0.201l-2.857,2.8c-0.054,0.053 -0.122,0.079 -0.206,0.079c-0.077,-0 -0.144,-0.028 -0.2,-0.083c-0.057,-0.056 -0.085,-0.121 -0.085,-0.197l-0,-1.68c-0.191,-0 -0.444,0.001 -0.759,0.004c-0.316,0.003 -0.557,0.006 -0.724,0.009c-0.166,0.003 -0.384,0 -0.651,-0.009c-0.268,-0.008 -0.48,-0.023 -0.634,-0.044c-0.155,-0.02 -0.346,-0.05 -0.572,-0.091c-0.226,-0.041 -0.413,-0.095 -0.562,-0.162c-0.149,-0.067 -0.322,-0.15 -0.518,-0.25c-0.197,-0.099 -0.372,-0.215 -0.527,-0.349c-0.155,-0.135 -0.318,-0.291 -0.491,-0.469c-0.173,-0.177 -0.339,-0.38 -0.5,-0.608c0.351,-0.542 0.756,-1.338 1.214,-2.388c0.131,0.262 0.241,0.474 0.331,0.634c0.089,0.16 0.209,0.346 0.361,0.556c0.152,0.21 0.304,0.375 0.456,0.494c0.151,0.12 0.339,0.222 0.562,0.306c0.223,0.085 0.466,0.128 0.728,0.128l2.286,-0l-0,-1.681c-0,-0.081 0.026,-0.148 0.08,-0.201c0.053,-0.052 0.122,-0.078 0.205,-0.078Z"/>
    </symbol>
    <symbol viewBox="0 0 18 18" id="s_fa_refresh">
        <path d="M15.645,2.629c-0.25,-0.103 -0.462,-0.061 -0.638,0.127l-1.185,1.176c-0.651,-0.613 -1.393,-1.089 -2.229,-1.426c-0.835,-0.337 -1.7,-0.506 -2.593,-0.506c-0.948,0 -1.853,0.185 -2.716,0.556c-0.863,0.371 -1.607,0.869 -2.233,1.495c-0.626,0.626 -1.124,1.37 -1.495,2.233c-0.371,0.863 -0.556,1.768 -0.556,2.716c0,0.948 0.185,1.853 0.556,2.716c0.371,0.863 0.869,1.607 1.495,2.233c0.626,0.626 1.37,1.124 2.233,1.495c0.863,0.371 1.768,0.556 2.716,0.556c1.045,-0 2.039,-0.22 2.98,-0.661c0.942,-0.44 1.744,-1.062 2.407,-1.864c0.048,-0.061 0.071,-0.129 0.068,-0.205c-0.003,-0.076 -0.032,-0.138 -0.087,-0.187l-1.248,-1.257c-0.067,-0.055 -0.143,-0.082 -0.228,-0.082c-0.097,0.012 -0.167,0.048 -0.21,0.109c-0.443,0.577 -0.987,1.024 -1.631,1.34c-0.644,0.316 -1.328,0.474 -2.051,0.474c-0.632,-0 -1.235,-0.123 -1.809,-0.369c-0.574,-0.246 -1.071,-0.579 -1.49,-0.998c-0.419,-0.42 -0.752,-0.916 -0.998,-1.491c-0.246,-0.574 -0.369,-1.177 -0.369,-1.809c-0,-0.632 0.123,-1.235 0.369,-1.809c0.246,-0.574 0.579,-1.071 0.998,-1.49c0.419,-0.419 0.916,-0.752 1.49,-0.998c0.574,-0.246 1.177,-0.369 1.809,-0.369c1.222,-0 2.282,0.416 3.181,1.248l-1.258,1.258c-0.188,0.182 -0.231,0.392 -0.127,0.629c0.103,0.243 0.282,0.364 0.538,0.364l4.083,0c0.158,0 0.294,-0.057 0.41,-0.173c0.115,-0.115 0.173,-0.252 0.173,-0.41l0,-4.083c-0,-0.255 -0.118,-0.435 -0.355,-0.538Z"/>
    </symbol>
    <symbol viewBox="0 0 18 18" id="s_fa_reply">
        <path d="M7.667,5.751l-0,-2.763c-0,-0.196 -0.121,-0.373 -0.306,-0.449c-0.184,-0.077 -0.399,-0.038 -0.542,0.099l-5.667,5.362c-0.097,0.092 -0.152,0.218 -0.152,0.35c-0,0.132 0.055,0.258 0.152,0.35l5.667,5.362c0.144,0.137 0.359,0.175 0.542,0.1c0.185,-0.077 0.306,-0.254 0.306,-0.45l-0,-2.762l0.945,0c3.091,0 5.94,1.638 7.435,4.272l0.014,0.024c0.09,0.159 0.259,0.254 0.439,0.254c0.041,-0 0.083,-0.005 0.124,-0.015c0.221,-0.055 0.376,-0.25 0.376,-0.473c0,-5.053 -4.171,-9.173 -9.333,-9.261Z"/>
    </symbol>
    <symbol viewBox="0 0 18 18" id="s_fa_setting">
        <path d="M3.36,12.151c-0.249,-0.44 -0.446,-0.909 -0.588,-1.396l-1.123,-0.13c-0.371,-0.044 -0.649,-0.356 -0.649,-0.727l0,-1.729c0,-0.371 0.278,-0.684 0.649,-0.727l1.065,-0.122c0.134,-0.533 0.336,-1.046 0.603,-1.526l-0.666,-0.843c-0.232,-0.293 -0.209,-0.71 0.055,-0.973l1.222,-1.223c0.263,-0.26 0.68,-0.286 0.973,-0.055l0.796,0.632c0.51,-0.304 1.057,-0.536 1.631,-0.69l0.115,-0.993c0.044,-0.371 0.357,-0.649 0.727,-0.649l1.729,0c0.371,0 0.684,0.278 0.727,0.649l0.116,0.993c0.559,0.151 1.092,0.374 1.59,0.666l0.767,-0.608c0.293,-0.231 0.71,-0.208 0.973,0.055l1.219,1.22c0.261,0.263 0.287,0.68 0.056,0.973l-0.626,0.791c0.266,0.475 0.475,0.981 0.614,1.512l1.016,0.118c0.371,0.044 0.649,0.357 0.649,0.727l0,1.729c0,0.371 -0.278,0.684 -0.649,0.728l-1.031,0.118c-0.144,0.536 -0.362,1.049 -0.64,1.53l0.669,0.848c0.232,0.293 0.209,0.71 -0.055,0.973l-1.222,1.223c-0.263,0.26 -0.68,0.286 -0.973,0.055l-0.86,-0.681c-0.489,0.275 -1.011,0.487 -1.555,0.629l-0.127,1.103c-0.044,0.371 -0.357,0.649 -0.727,0.649l-1.729,0c-0.371,0 -0.684,-0.278 -0.727,-0.649l-0.133,-1.144c-0.507,-0.145 -0.994,-0.35 -1.451,-0.614l-0.889,0.704c-0.293,0.232 -0.71,0.209 -0.973,-0.055l-1.222,-1.222c-0.261,-0.264 -0.287,-0.681 -0.055,-0.974l0.709,-0.895Zm8.64,-3.151c0,-1.654 -1.347,-3 -3,-3c-1.654,0 -3,1.346 -3,3c0,1.653 1.347,3 3,3c1.653,0 3,-1.347 3,-3Z"/>
    </symbol>
    <symbol viewBox="0 0 18 18" id="s_fa_user">
        <path d="M5.201,4.769c0,-2.078 1.704,-3.769 3.799,-3.769c2.095,0 3.799,1.691 3.799,3.769c-0,2.078 -1.704,3.768 -3.799,3.768c-2.095,0 -3.799,-1.69 -3.799,-3.768Zm-3.201,11.68c-0,-3.558 3.14,-6.454 7,-6.454c3.86,0 7,2.896 7,6.454c0,0.304 -0.268,0.551 -0.598,0.551l-12.804,0c-0.33,0 -0.598,-0.247 -0.598,-0.551Z"/>
    </symbol>
    <symbol viewBox="0 0 18 18" id="s_fa_hand">
        <path d="M16.669,5.895l-9.995,-0l1.897,-1.506c0.578,-0.458 0.676,-1.3 0.22,-1.88c-0.456,-0.58 -1.293,-0.679 -1.87,-0.221c-0,0 -3.297,2.735 -4.869,3.865c-1.062,0.762 -2.052,1.701 -2.052,3.092l-0,3.21c-0,1.955 1.582,3.545 3.527,3.545l6.283,-0c0.736,-0 1.332,-0.599 1.332,-1.339c-0,-0.481 -0.254,-0.901 -0.633,-1.137l0.433,-0c0.736,-0 1.332,-0.599 1.332,-1.339c-0,-0.481 -0.254,-0.901 -0.633,-1.137l0.3,-0c0.735,-0 1.331,-0.6 1.331,-1.339c0,-0.481 -0.253,-0.902 -0.632,-1.137l4.028,-0c0.736,-0 1.332,-0.6 1.332,-1.339c-0,-0.739 -0.596,-1.338 -1.332,-1.338Z"/>
    </symbol>
    <symbol viewBox="0 0 18 18" id="s_fa_key">
        <path d="M8.653,6.98l-7.109,7.1c-0.625,0.589 -0.724,1.546 -0.233,2.25c0.048,0.064 0.101,0.125 0.158,0.182c0.651,0.651 1.708,0.651 2.359,-0l0.601,-0.6l0.989,0.988c0.13,0.13 0.342,0.13 0.472,-0l1.335,-1.333c0.13,-0.131 0.13,-0.342 -0,-0.472l-1.099,-1.097l0.529,-0.529l1.099,1.098c0.13,0.13 0.341,0.13 0.472,-0l1.335,-1.333c0.13,-0.131 0.13,-0.342 -0,-0.472l-0.99,-0.988l2.442,-2.437c0.522,0.217 1.083,0.329 1.649,0.328c2.396,0 4.338,-1.939 4.338,-4.332c-0,-2.393 -1.942,-4.333 -4.338,-4.333c-2.396,-0 -4.338,1.94 -4.338,4.333c-0,0.565 0.111,1.125 0.329,1.647Zm6.345,-1.647c-0,1.288 -1.046,2.333 -2.336,2.333c-1.29,-0 -2.336,-1.045 -2.336,-2.333c0,-1.289 1.046,-2.333 2.336,-2.333c1.29,-0 2.336,1.044 2.336,2.333Z"/>
    </symbol>
    <symbol viewBox="0 0 18 18" id="s_fa_bars">
        <path d="M17,4.5c0,-0.276 -0.224,-0.5 -0.5,-0.5l-15,0c-0.276,0 -0.5,0.224 -0.5,0.5l0,1c0,0.276 0.224,0.5 0.5,0.5l15,0c0.276,0 0.5,-0.224 0.5,-0.5l0,-1Zm-0.5,3.5c0.276,0 0.5,0.224 0.5,0.5l0,1c0,0.276 -0.224,0.5 -0.5,0.5l-15,0c-0.276,0 -0.5,-0.224 -0.5,-0.5l0,-1c0,-0.276 0.224,-0.5 0.5,-0.5l15,0Zm0,4c0.276,0 0.5,0.224 0.5,0.5l0,1c0,0.276 -0.224,0.5 -0.5,0.5l-15,0c-0.276,0 -0.5,-0.224 -0.5,-0.5l0,-1c0,-0.276 0.224,-0.5 0.5,-0.5l15,0Z"/>
    </symbol>
    <symbol viewBox="0 0 18 18" id="s_fa_bell">
        <path d="M13.55,8.859c0,1.319 0.564,2.564 1.546,3.416c0.259,0.228 0.404,0.55 0.404,0.892c0,0.643 -0.51,1.166 -1.138,1.166l-10.725,0c-0.627,0 -1.137,-0.523 -1.137,-1.166c-0,-0.342 0.145,-0.664 0.398,-0.886c0.988,-0.858 1.552,-2.103 1.552,-3.422l-0,-1.859c-0,-2.346 1.698,-4.288 3.9,-4.613l-0,-0.72c-0,-0.369 0.291,-0.667 0.65,-0.667c0.359,0 0.65,0.298 0.65,0.667l0,0.72c2.201,0.325 3.9,2.267 3.9,4.613l-0,1.859Zm-2.162,6.141c-0.226,1.139 -1.211,2 -2.388,2c-1.177,0 -2.162,-0.861 -2.388,-2l4.776,0Z"/>
    </symbol>
    <symbol viewBox="0 0 18 18" id="s_fa_bin" fill-rule="evenodd">
        <path d="M12.5,2.5c0,-0.552 -0.448,-1 -1,-1l-5,0c-0.552,0 -1,0.448 -1,1c0,0.552 0.448,1 1,1l5,0c0.552,0 1,-0.448 1,-1Zm-10,3c0,-0.552 0.448,-1 1,-1l11,0c0.552,0 1,0.448 1,1c0,0.513 -0.386,0.936 -0.883,0.993l-0.117,0.007l0,8c0,1.105 -0.895,2 -2,2l-7,0c-1.105,0 -2,-0.895 -2,-2l0,-8c-0.552,0 -1,-0.448 -1,-1Zm4,1l-1,0l0,8l1,0l0,-8Zm2,0l1,0l0,8l-1,0l0,-8Zm4,0l-1,0l0,8l1,0l0,-8Z"/>
    </symbol>
    <symbol viewBox="0 0 18 18" id="s_fa_bookmark">
        <path d="M14.03,1l-10.06,0c-0.26,0 -0.47,0.21 -0.47,0.469l-0,15.062c-0,0.19 0.114,0.361 0.29,0.433c0.058,0.024 0.119,0.036 0.18,0.036c0.122,-0 0.242,-0.048 0.332,-0.137l4.698,-4.69l4.698,4.69c0.135,0.134 0.337,0.174 0.512,0.101c0.176,-0.072 0.29,-0.243 0.29,-0.433l0,-15.062c0,-0.259 -0.21,-0.469 -0.47,-0.469Z"/>
    </symbol>
    <symbol viewBox="0 0 18 18" id="s_fa_card">
        <path d="M17,4.909l0,0.921c0,0.094 -0.07,0.17 -0.156,0.17l-15.688,0c-0.086,0 -0.156,-0.076 -0.156,-0.17l-0,-0.921c-0,-1.054 0.783,-1.909 1.75,-1.909l12.5,0c0.966,0 1.75,0.855 1.75,1.909Zm-16,3.242l0,5.159c0,0.934 0.784,1.69 1.75,1.69l12.5,0c0.966,0 1.75,-0.756 1.75,-1.69l0,-5.159c0,-0.083 -0.07,-0.151 -0.156,-0.151l-15.688,0c-0.086,0 -0.156,0.068 -0.156,0.151Zm4,4.182c-0,0.368 -0.299,0.667 -0.667,0.667l-0.666,0c-0.369,0 -0.667,-0.299 -0.667,-0.667l-0,-0.666c-0,-0.368 0.298,-0.667 0.667,-0.667l0.666,0c0.368,0 0.667,0.299 0.667,0.667l-0,0.666Z"/>
    </symbol>
    <symbol viewBox="0 0 64 64" id="s_loading_b">
        <g>
            <path d="M32,0.5c17.397,0 31.5,14.103 31.5,31.5c0,17.397 -14.103,31.5 -31.5,31.5c-17.397,0 -31.5,-14.103 -31.5,-31.5c0,-8.408 3.311,-16.295 9.107,-22.153c0.582,-0.589 1.532,-0.594 2.121,-0.012c0.589,0.583 0.594,1.533 0.011,2.121c-5.246,5.302 -8.239,12.434 -8.239,20.044c0,15.74 12.76,28.5 28.5,28.5c15.74,0 28.5,-12.76 28.5,-28.5c0,-15.74 -12.76,-28.5 -28.5,-28.5c-0.828,0 -1.5,-0.672 -1.5,-1.5c0,-0.828 0.672,-1.5 1.5,-1.5Z"/>
        </g>
    </symbol>
    <symbol viewBox="0 0 18 18" id="s_loading_s">
        <g>
            <path d="M9.00039 0C13.9707 0 18 4.02966 18 9C18 13.9703 13.9707 18 9.00039 18C4.02943 18 0 13.9705 0 9C0 6.59832 0.94651 4.34356 2.60185 2.67023C2.99025 2.27761 3.62341 2.27417 4.01604 2.66256C4.40868 3.05094 4.41212 3.68407 4.02372 4.07669C2.73507 5.37934 2 7.13041 2 9C2 12.866 5.13403 16.0001 9.00039 16.0001C12.8661 16.0001 16 12.8659 16 9C16 5.13412 12.8661 1.99991 9.00039 1.99991C8.4481 1.99991 8.00039 1.55222 8.00039 0.999957C8.00039 0.447696 8.4481 0 9.00039 0Z"/>
        </g>
    </symbol>
</svg>