<svg width="18" height="18" viewBox="0 0 18 18" fill="none" xmlns="http://www.w3.org/2000/svg">
    <path fill="#3DA0EE" d="M9.00039 0C13.9707 0 18 4.02966 18 9C18 13.9703 13.9707 18 9.00039 18C4.02943 18 0 13.9705 0 9C0 6.59832 0.94651 4.34356 2.60185 2.67023C2.99025 2.27761 3.62341 2.27417 4.01604 2.66256C4.40868 3.05094 4.41212 3.68407 4.02372 4.07669C2.73507 5.37934 2 7.13041 2 9C2 12.866 5.13403 16.0001 9.00039 16.0001C12.8661 16.0001 16 12.8659 16 9C16 5.13412 12.8661 1.99991 9.00039 1.99991C8.4481 1.99991 8.00039 1.55222 8.00039 0.999957C8.00039 0.447696 8.4481 0 9.00039 0Z">
        <animateTransform attributeName="transform" attributeType="XML" type="rotate" dur="1s" from="0 9 9" to="360 9 9" repeatCount="indefinite"/>
    </path>
</svg>