<svg width="50" height="56.409" viewBox="0 0 50 56.409" fill="none" xmlns="http://www.w3.org/2000/svg">
    <g id="surface1">
        <path style=" stroke:none;fill-rule:nonzero;fill:rgb(57.647061%,37.254903%,30.588236%);fill-opacity:1;" d="M 48.011719 43.367188 C 49.078125 42.730469 49.929688 41.320312 49.929688 40.125 L 49.929688 15.804688 C 49.929688 14.609375 49.078125 13.199219 48.011719 12.5625 L 26.917969 0.441406 C 25.851562 -0.191406 24.148438 -0.191406 23.082031 0.441406 L 1.988281 12.5625 C 0.921875 13.199219 0.0703125 14.609375 0.0703125 15.804688 L 0.0703125 40.195312 C 0.0703125 41.390625 0.921875 42.800781 1.988281 43.4375 L 23.082031 55.558594 C 24.148438 56.191406 25.851562 56.191406 26.917969 55.558594 Z M 48.011719 43.367188 "/>
        <path style=" stroke:none;fill-rule:nonzero;fill:rgb(100%,100%,100%);fill-opacity:1;" d="M 31.035156 28.847656 C 31.035156 28.351562 31.035156 27.578125 31.035156 27.507812 C 31.035156 27.367188 31.035156 27.226562 31.25 27.226562 C 31.320312 27.226562 31.390625 27.226562 31.390625 27.152344 C 32.597656 26.660156 32.882812 25.390625 32.101562 24.617188 C 32.03125 24.546875 32.03125 24.476562 32.03125 24.476562 C 32.03125 24.054688 31.890625 23.699219 31.675781 23.347656 C 31.605469 23.207031 31.464844 23.136719 31.464844 22.996094 C 31.464844 22.714844 31.320312 22.433594 31.179688 22.148438 C 30.824219 21.726562 30.398438 21.726562 30.042969 22.148438 C 29.828125 22.433594 29.757812 22.714844 29.757812 22.996094 C 29.757812 23.066406 29.757812 23.136719 29.6875 23.207031 C 29.332031 23.558594 29.191406 23.984375 29.191406 24.546875 C 29.191406 24.617188 29.121094 24.6875 29.121094 24.757812 C 28.90625 25.039062 28.691406 25.390625 28.691406 25.746094 C 28.765625 25.957031 28.765625 26.167969 28.835938 26.308594 C 29.046875 26.871094 29.546875 27.152344 30.113281 27.296875 C 30.183594 27.296875 30.253906 27.367188 30.253906 27.4375 C 30.253906 27.578125 30.253906 27.71875 30.253906 27.859375 C 30.253906 27.929688 30.253906 28.210938 30.183594 28.5625 C 29.121094 28.210938 27.984375 28.070312 26.777344 28.070312 C 26.5625 28.070312 26.347656 28.070312 26.136719 28.070312 C 26.066406 27.507812 25.996094 26.589844 25.996094 26.519531 C 25.996094 26.238281 25.996094 26.097656 26.347656 26.097656 C 26.421875 26.097656 26.492188 26.027344 26.632812 26.027344 C 28.480469 25.320312 28.90625 23.347656 27.699219 22.148438 C 27.628906 22.078125 27.628906 22.007812 27.628906 21.867188 C 27.628906 21.234375 27.484375 20.597656 27.058594 20.105469 C 26.917969 19.894531 26.777344 19.753906 26.777344 19.542969 C 26.777344 19.046875 26.632812 18.625 26.347656 18.203125 C 25.851562 17.496094 25.070312 17.496094 24.574219 18.203125 C 24.289062 18.625 24.148438 19.046875 24.148438 19.472656 C 24.148438 19.613281 24.148438 19.683594 24.078125 19.753906 C 23.507812 20.316406 23.296875 21.023438 23.296875 21.796875 C 23.296875 21.9375 23.222656 22.078125 23.152344 22.148438 C 22.796875 22.574219 22.515625 23.066406 22.515625 23.699219 C 22.585938 23.984375 22.65625 24.335938 22.726562 24.617188 C 23.082031 25.460938 23.792969 25.957031 24.714844 26.167969 C 24.859375 26.238281 24.929688 26.238281 24.929688 26.378906 C 24.929688 26.589844 24.929688 26.800781 24.929688 27.011719 C 24.929688 27.082031 24.859375 27.71875 24.859375 28.28125 C 23.367188 28.5625 22.015625 29.128906 20.878906 29.902344 C 24.785156 30.183594 27.910156 33.144531 27.910156 36.667969 L 36.789062 36.667969 C 36.648438 33.144531 34.375 30.183594 31.035156 28.847656 M 13.28125 36.597656 C 13.28125 33.425781 16.265625 30.820312 19.886719 30.820312 C 23.507812 30.820312 26.492188 33.425781 26.492188 36.597656 "/>
    </g>
</svg>