<svg width="50" height="56.409" viewBox="0 0 50 56.409" fill="none" xmlns="http://www.w3.org/2000/svg">
  <defs>
    <clipPath id="clip-path">
      <path id="Path_93" data-name="Path 93" d="M0-29.333H50V-85.742H0Z" transform="translate(0 85.742)" fill="none"/>
    </clipPath>
  </defs>
  <g id="Group_57" data-name="Group 57" transform="translate(0 85.742)">
    <g id="Group_8" data-name="Group 8" transform="translate(0 -85.742)" clip-path="url(#clip-path)">
      <g id="Group_6" data-name="Group 6" transform="translate(0 0)">
        <path id="Path_91" data-name="Path 91" d="M-14.126-29.031,6.545-40.965a4.331,4.331,0,0,0,2.166-3.751V-68.6a4.331,4.331,0,0,0-2.166-3.75l-20.67-11.933a4.315,4.315,0,0,0-2.164-.581,4.313,4.313,0,0,0-2.164.581l-20.67,11.933A4.331,4.331,0,0,0-41.29-68.6v23.881a4.331,4.331,0,0,0,2.166,3.751l20.67,11.934a4.33,4.33,0,0,0,4.329,0" transform="translate(41.29 84.86)" fill="#f37021"/>
      </g>
      <g id="Group_7" data-name="Group 7" transform="translate(11.766 16.349)">
        <path id="Path_92" data-name="Path 92" d="M-11.957-8.826a3.367,3.367,0,0,0-2.234.857l-6.667-4.37v-6.807a3.385,3.385,0,0,0,2.5-3.259A3.4,3.4,0,0,0-21.756-25.8,3.4,3.4,0,0,0-25.151-22.4a3.385,3.385,0,0,0,2.5,3.259v6.806l-6.667,4.37a3.371,3.371,0,0,0-2.234-.857A3.394,3.394,0,0,0-34.95-5.431a3.394,3.394,0,0,0,3.394,3.395,3.4,3.4,0,0,0,3.395-3.395,3.352,3.352,0,0,0-.178-1.035l6.583-4.314,6.582,4.314a3.372,3.372,0,0,0-.178,1.035,3.4,3.4,0,0,0,3.395,3.395A3.4,3.4,0,0,0-8.562-5.431a3.4,3.4,0,0,0-3.395-3.395" transform="translate(34.95 25.799)" fill="#fff"/>
      </g>
    </g>
  </g>
</svg>