<svg width="50" height="56.409" viewBox="0 0 50 56.409" fill="none" xmlns="http://www.w3.org/2000/svg">
  <defs>
    <clipPath id="clip-path">
      <path id="Path_102" data-name="Path 102" d="M0-29.333H50V-85.742H0Z" transform="translate(0 85.742)" fill="none"/>
    </clipPath>
  </defs>
  <g id="Group_21" data-name="Group 21" transform="translate(0 85.742)">
    <g id="Group_20" data-name="Group 20" transform="translate(0 -85.742)" clip-path="url(#clip-path)">
      <g id="Group_18" data-name="Group 18" transform="translate(0 0)">
        <path id="Path_100" data-name="Path 100" d="M-14.126-29.031,6.545-40.965a4.331,4.331,0,0,0,2.166-3.751V-68.6a4.331,4.331,0,0,0-2.166-3.75l-20.67-11.933a4.315,4.315,0,0,0-2.164-.581,4.313,4.313,0,0,0-2.164.581l-20.67,11.933A4.331,4.331,0,0,0-41.29-68.6v23.881a4.331,4.331,0,0,0,2.166,3.751l20.67,11.934a4.33,4.33,0,0,0,4.329,0" transform="translate(41.29 84.86)" fill="#7099a6"/>
      </g>
      <g id="Group_19" data-name="Group 19" transform="translate(11.806 15.033)">
        <path id="Path_101" data-name="Path 101" d="M-6.861,0A13.194,13.194,0,0,0-20.055,13.194,13.194,13.194,0,0,0-6.861,26.388,13.194,13.194,0,0,0,6.333,13.194,13.194,13.194,0,0,0-6.861,0m2.4,22.3V19.19h-4.8V22.3a9.419,9.419,0,0,1-7.026-9.1,9.419,9.419,0,0,1,7.026-9.1V7.2h4.8V4.089a9.42,9.42,0,0,1,7.026,9.1,9.42,9.42,0,0,1-7.026,9.1" transform="translate(20.055)" fill="#fff"/>
      </g>
    </g>
    <path id="Path_103" data-name="Path 103" d="M34.672-41.785h4.38v-4.38h-4.38Z" transform="translate(-11.861 -13.539)" fill="#fff"/>
  </g>
</svg>