<svg width="50" height="56.409" viewBox="0 0 50 56.409" fill="none" xmlns="http://www.w3.org/2000/svg">
  <defs>
    <clipPath id="clip-path">
      <path id="Path_99" data-name="Path 99" d="M0-29.333H50V-85.742H0Z" transform="translate(0 85.742)" fill="none"/>
    </clipPath>
  </defs>
  <g id="Group_17" data-name="Group 17" transform="translate(0 85.742)">
    <g id="Group_16" data-name="Group 16" transform="translate(0 -85.742)" clip-path="url(#clip-path)">
      <g id="Group_14" data-name="Group 14" transform="translate(0 0)">
        <path id="Path_97" data-name="Path 97" d="M-14.126-29.031,6.545-40.965a4.331,4.331,0,0,0,2.166-3.751V-68.6a4.331,4.331,0,0,0-2.166-3.75l-20.67-11.933a4.315,4.315,0,0,0-2.164-.581,4.313,4.313,0,0,0-2.164.581l-20.67,11.933A4.331,4.331,0,0,0-41.29-68.6v23.881a4.331,4.331,0,0,0,2.166,3.751l20.67,11.934a4.33,4.33,0,0,0,4.329,0" transform="translate(41.29 84.86)" fill="#0546a5"/>
      </g>
      <g id="Group_15" data-name="Group 15" transform="translate(13.748 15.014)">
        <path id="Path_98" data-name="Path 98" d="M-11.49-2.369a43.89,43.89,0,0,1-10.561-4.48.556.556,0,0,0-.564,0,42.682,42.682,0,0,1-10.562,4.48.556.556,0,0,0-.409.536V3.838a16.315,16.315,0,0,0,4.955,11.921c2.434,2.385,5.268,3.7,6.3,3.7s3.864-1.318,6.3-3.7A16.317,16.317,0,0,0-11.081,3.838V-1.834a.555.555,0,0,0-.409-.536" transform="translate(33.586 6.926)" fill="#fff"/>
      </g>
    </g>
  </g>
</svg>