<svg width="50" height="56.409" viewBox="0 0 50 56.409" fill="none" xmlns="http://www.w3.org/2000/svg">
  <defs>
    <clipPath id="clip-path">
      <path id="Path_96" data-name="Path 96" d="M0-29.333H50V-85.742H0Z" transform="translate(0 85.742)" fill="none"/>
    </clipPath>
  </defs>
  <g id="Group_13" data-name="Group 13" transform="translate(0 85.742)">
    <g id="Group_12" data-name="Group 12" transform="translate(0 -85.742)" clip-path="url(#clip-path)">
      <g id="Group_10" data-name="Group 10" transform="translate(0 0)">
        <path id="Path_94" data-name="Path 94" d="M-14.126-29.031,6.545-40.965a4.331,4.331,0,0,0,2.166-3.751V-68.6a4.331,4.331,0,0,0-2.166-3.75l-20.67-11.933a4.315,4.315,0,0,0-2.164-.581,4.313,4.313,0,0,0-2.164.581l-20.67,11.933A4.331,4.331,0,0,0-41.29-68.6v23.881a4.331,4.331,0,0,0,2.166,3.751l20.67,11.934a4.33,4.33,0,0,0,4.329,0" transform="translate(41.29 84.86)" fill="#349e49"/>
      </g>
      <g id="Group_11" data-name="Group 11" transform="translate(13.81 15.037)">
        <path id="Path_95" data-name="Path 95" d="M-6.369-10.984c.085,1.761.166,3.449.253,5.265H-8.438c.094-1.675.189-3.349.288-5.107a26.512,26.512,0,0,1-3.686-.027,7.482,7.482,0,0,1-6.414-5.627,7.844,7.844,0,0,1,2.1-8.055,7.087,7.087,0,0,0,1.389-2.126,8.6,8.6,0,0,1,9.108-5.349A8.421,8.421,0,0,1,1.773-23.92a3.233,3.233,0,0,0,.5,1.458,7.253,7.253,0,0,1,.147,8.376,7.062,7.062,0,0,1-7.7,3.227c-.326-.058-.658-.076-1.09-.125" transform="translate(18.618 32.107)" fill="#fff"/>
      </g>
    </g>
  </g>
</svg>